<svg width="141" height="31" viewBox="0 0 141 31" fill="none" xmlns="http://www.w3.org/2000/svg">
<g clip-path="url(#clip0_2010_132)">
<path fill-rule="evenodd" clip-rule="evenodd" d="M3.35505 10.6C3.35505 11.0647 3.44659 11.4769 3.58919 11.8337C3.68844 12.0807 3.87151 12.3393 4.08541 12.4997L4.18755 12.5833C3.80695 12.5833 2.75091 12.7175 2.52255 12.84C2.64107 13.0179 3.02167 13.2901 3.18836 13.4049C3.33963 13.5079 3.77323 13.8239 3.9563 13.8667C3.95148 13.8696 3.94377 13.8686 3.94185 13.8754L3.33096 14.1924C3.19029 14.274 2.82029 14.4519 2.77693 14.6133C2.85497 14.6318 3.01396 14.7164 3.09971 14.7543C3.20956 14.8029 3.3088 14.8379 3.43117 14.8865C3.66242 14.9779 3.88692 15.0431 4.1413 15.1033L3.67206 15.6332C3.5863 15.7353 3.43695 15.8675 3.42443 16.0133C3.61039 16.0571 3.79635 16.1047 4.00448 16.1281C4.20682 16.1504 4.42651 16.1835 4.62692 16.2C4.54984 16.5335 4.38122 16.7931 4.34942 17.18C4.53539 17.18 4.73966 17.1926 4.91406 17.1664C5.00945 17.1518 5.09713 17.1586 5.19252 17.144C5.28791 17.1294 5.36885 17.11 5.45942 17.11C5.41895 17.5961 5.43919 17.4717 5.48255 17.9967C5.66562 17.9928 6.27747 17.8265 6.40754 17.7633C6.52317 18.0064 6.57135 18.3039 6.75442 18.58C7.05215 18.51 7.2545 18.4517 7.49442 18.3233C7.51947 18.4322 7.68905 18.7472 7.74879 18.8367C7.80757 18.7968 7.82877 18.7618 7.88754 18.72C8.83759 18.0278 9.85702 19.2858 9.27986 19.7515C9.20277 19.8137 9.05728 19.876 8.95514 19.9139C8.32499 20.1453 8.15733 20.1044 7.87212 20.7811C7.78348 20.9901 7.66015 21.2662 7.40288 21.2876C7.4578 21.3712 7.55223 21.4043 7.68038 21.4043C7.9309 21.4043 8.10048 21.1224 8.48975 21.031C8.48975 21.2167 8.4435 21.4228 8.4435 21.6143C8.4435 21.7767 8.47723 21.9565 8.48975 22.1043C8.57936 22.0829 8.71233 21.9837 8.79134 21.9419C8.87324 21.8982 9.04861 21.8331 9.16038 21.8243C9.11413 22.0256 9.06306 22.4835 9.16038 22.6876C9.30009 22.5933 9.43595 22.4903 9.60457 22.4358C10.2646 22.2258 10.4727 22.4076 10.8947 22.4076V22.431C10.6895 22.431 10.2472 22.4806 10.2472 22.6643C10.2472 22.7965 10.3292 22.9239 10.3369 23.0639C10.3446 23.2019 10.2733 23.3458 10.2704 23.481C10.5941 23.481 10.7444 23.4887 11.0075 23.2914C11.0836 23.234 11.1077 23.1543 11.1954 23.131C11.2773 23.6929 11.0624 23.6783 10.9179 23.8776C11.1877 23.8776 11.5403 23.726 11.6116 23.4576H11.6579C11.6714 23.6219 11.9007 23.9087 12.0279 23.9943C12.1724 23.9175 12.4229 23.6949 12.4672 23.5276H12.5135C12.5578 23.6949 12.8083 23.9175 12.9529 23.9943C13.082 23.9068 13.3094 23.6229 13.3229 23.4576H13.3691C13.4404 23.726 13.7931 23.8776 14.0629 23.8776C13.9405 23.7094 13.7622 23.6881 13.7622 23.341C13.7622 23.2233 13.7834 23.2369 13.7854 23.131C13.8731 23.1543 13.8885 23.2282 13.9598 23.2817C14.2286 23.4839 14.3866 23.481 14.7104 23.481C14.7046 23.234 14.6053 23.1436 14.6786 22.8656C14.7161 22.7246 14.9137 22.431 14.086 22.431V22.4076C14.4444 22.4076 15.0187 22.184 15.6142 22.5457C15.698 22.5962 15.7471 22.6371 15.8204 22.6876C15.9177 22.4835 15.8666 22.0256 15.8204 21.8243C16.1297 21.8506 16.278 22.0537 16.491 22.1043C16.5025 21.9653 16.5372 21.7611 16.5372 21.6143C16.5372 21.4228 16.491 21.2167 16.491 21.031C16.8928 21.1253 17.0296 21.4043 17.3235 21.4043C17.4516 21.4043 17.4777 21.3576 17.5779 21.3343V21.2876C17.1539 21.2517 17.071 20.4554 16.7367 20.1997C16.4602 19.9897 16.0034 19.9819 15.7144 19.7612C15.1228 19.3121 16.1152 18.0336 17.0797 18.7103C17.1529 18.7618 17.1674 18.7939 17.2319 18.8367C17.2917 18.7472 17.4613 18.4322 17.4863 18.3233C17.7262 18.4517 17.9286 18.51 18.2263 18.58C18.2947 18.4769 18.3641 18.3146 18.4152 18.1872L18.5732 17.7633C18.7033 17.8265 19.3151 17.9928 19.4982 17.9967C19.5416 17.4658 19.5608 17.5854 19.5213 17.11L20.0464 17.1635C20.2131 17.1858 20.429 17.18 20.6313 17.18C20.5995 16.7969 20.4319 16.5364 20.3538 16.2C20.7508 16.1669 21.1757 16.1028 21.5563 16.0133C21.5438 15.8626 21.1748 15.4543 21.0418 15.3192C20.9686 15.2453 20.8944 15.1869 20.8394 15.1033C21.4426 14.9614 22.0805 14.6425 22.2038 14.6133C22.1624 14.4568 21.8039 14.2789 21.6652 14.2001C21.5525 14.136 21.4629 14.0874 21.3482 14.03L21.0244 13.8667C21.2605 13.8112 21.9119 13.3251 22.1248 13.1569C22.1971 13.0996 22.3917 12.8876 22.4582 12.8633C22.3782 12.7535 21.8492 12.6942 21.6787 12.6699C21.4397 12.6349 21.0649 12.5833 20.7932 12.5833L20.9724 12.4375C21.0418 12.3733 21.0649 12.3374 21.1237 12.2635C21.2181 12.1458 21.3231 12 21.3838 11.8493C21.6286 11.2524 21.698 10.5514 21.5274 9.90389C21.5081 9.83 21.4975 9.75611 21.4397 9.71236C21.3414 10.1382 20.6583 10.9101 20.3596 11.2592C20.2921 11.3379 20.2652 11.3467 20.2594 11.4614C20.2343 11.9572 20.1573 12.5133 19.9376 12.9333C20.1707 13.0461 20.4328 13.1472 20.6554 13.2824C20.7373 13.3319 20.8019 13.3796 20.8857 13.4233C20.7662 13.6032 20.3211 14.0514 20.0994 14.17C20.1968 14.3168 20.3297 14.4549 20.4521 14.5842C20.5311 14.6678 20.7604 14.9147 20.7701 15.0333L19.8451 15.4533C19.8807 15.606 19.98 15.7781 20.033 15.9404C20.0773 16.0765 20.1418 16.375 20.1919 16.48C19.9559 16.4849 19.6495 16.55 19.3363 16.55H19.1051C19.1051 17.1324 19.0771 17.1032 19.0357 17.6C18.737 17.6 18.2273 17.4211 18.0182 17.32C17.9748 17.5076 17.7696 18.0628 17.6251 18.16C17.5817 17.9967 17.0219 17.6233 16.7001 17.6233C16.2877 17.6233 16.1268 17.7449 15.8493 18.0249C15.6855 18.1901 15.5458 18.5187 15.4783 18.7706C15.2538 19.6018 15.7394 21.2769 15.0852 21.7339C14.5514 22.1072 13.4693 21.5696 12.7525 22.1801C12.6734 22.2472 12.5395 22.3931 12.5145 22.5H12.4682C12.4142 22.2657 12.1136 22.0576 11.9045 21.9721C11.2541 21.7076 9.93506 22.1617 9.65564 21.4412C9.33478 20.6119 9.90423 18.825 9.14496 18.0365C8.86842 17.7497 8.6998 17.6233 8.28259 17.6233C7.98293 17.6233 7.72952 17.7818 7.53681 17.9675C7.48671 18.0161 7.49056 18.0093 7.43564 18.0521C7.37397 18.0997 7.37687 18.0861 7.35759 18.16C7.21499 18.0637 7.00687 17.5037 6.96447 17.32C6.75538 17.4211 6.24567 17.6 5.94697 17.6C5.90554 17.1032 5.8776 17.1324 5.8776 16.55L5.20697 16.5267C5.05666 16.5228 4.92369 16.4829 4.79072 16.48L4.94393 15.9579C5.00078 15.7839 5.10195 15.6099 5.1376 15.4533C4.91213 15.3444 4.65968 15.2783 4.43614 15.1578C4.36099 15.1169 4.29161 15.0547 4.2126 15.0333C4.21935 14.9507 4.22898 14.9604 4.27041 14.905C4.44578 14.6736 4.74929 14.3712 4.88322 14.17C4.66065 14.0514 4.22802 13.6207 4.09698 13.4233L5.0451 12.9333C4.83697 12.4958 4.72135 12 4.72231 11.509C4.72231 11.3087 4.60476 11.2601 4.49684 11.1299C4.31088 10.9062 4.14997 10.7011 3.97461 10.4668C3.86476 10.319 3.58341 9.89417 3.54198 9.71333C3.48609 9.75417 3.48224 9.79986 3.45911 9.88639C3.39359 10.1294 3.35698 10.3375 3.35698 10.6H3.35505Z" fill="#142036"/>
<path fill-rule="evenodd" clip-rule="evenodd" d="M5.4363 13.05C5.27153 13.0889 5.11158 13.1793 4.96609 13.2522C4.88612 13.2921 4.82734 13.3174 4.75218 13.3631C4.67221 13.4117 4.61151 13.4525 4.53442 13.4933C4.66354 13.6878 4.88226 13.8579 5.07304 13.9999C5.14145 14.0514 5.23299 14.1068 5.27442 14.17C5.18481 14.3042 4.91117 14.5492 4.77242 14.7135C4.71557 14.7806 4.66547 14.8418 4.62692 14.9167C4.8177 15.046 5.31682 15.2346 5.55192 15.29C5.50182 15.4796 5.16265 15.919 5.13567 16.2467C5.27249 16.2496 5.47869 16.2894 5.62033 16.2943C5.80148 16.3001 5.99419 16.2943 6.1763 16.2943C6.1339 16.8038 6.15413 16.6988 6.19942 17.251C6.50486 17.2442 6.85752 17.0906 7.12442 16.9476C7.17934 17.0624 7.20632 17.2325 7.24872 17.3589C7.29207 17.4872 7.37205 17.6117 7.40192 17.741C7.49442 17.7196 7.47418 17.7186 7.53585 17.6661C7.85574 17.3919 8.31343 17.3142 8.70655 17.4513C8.8771 17.5106 8.98598 17.5913 9.11027 17.6972C9.23553 17.8032 9.32418 17.9306 9.40993 18.0715C9.45908 18.1522 9.48413 18.3136 9.57566 18.3476C9.51592 18.0881 9.55254 16.1144 9.55254 15.6876C9.55254 15.5486 9.59686 15.431 9.73754 15.431H15.2413C15.382 15.431 15.4263 15.5486 15.4263 15.6876C15.4263 16.1144 15.4629 18.0881 15.4032 18.3476C15.514 18.3068 15.6219 17.6788 16.2723 17.4513C16.5074 17.3696 16.754 17.3472 17.0074 17.4289C17.1674 17.4804 17.3081 17.5514 17.4304 17.6554C17.4988 17.7138 17.4748 17.7176 17.5769 17.741C17.6077 17.6088 17.6858 17.4911 17.7301 17.3589C17.7725 17.2325 17.7995 17.0624 17.8544 16.9476L18.2735 17.1314C18.394 17.1722 18.6378 17.2481 18.7794 17.251C18.8247 16.6988 18.8449 16.8038 18.8025 16.2943C19.0945 16.2943 19.3132 16.3225 19.583 16.2885C19.6447 16.2807 19.7728 16.2535 19.8431 16.2476C19.8306 16.094 19.7111 15.8792 19.661 15.7547C19.5984 15.5982 19.4693 15.4524 19.4269 15.291C19.6822 15.2307 20.1659 15.044 20.3519 14.9176C20.296 14.8107 20.2054 14.7232 20.1274 14.6308C20.0021 14.4811 19.8075 14.3265 19.7044 14.171C19.7921 14.0388 20.2748 13.749 20.4444 13.4943L20.0281 13.261C19.9559 13.225 19.8913 13.189 19.8123 13.1521C19.7266 13.1122 19.6427 13.0889 19.5656 13.051C19.6302 12.7729 19.9356 12.7058 19.9356 11.1843C19.8576 11.2368 19.7767 11.4507 19.7179 11.5479C19.4992 11.9086 19.2168 12.2013 18.9239 12.4968C18.6291 12.7943 18.2967 13.0315 17.9508 13.2649C17.3572 13.6664 18.0625 14.1369 18.0625 14.801C18.0625 15.465 17.4295 16.0143 16.7675 16.0143C16.5459 16.0143 16.2877 16.0007 16.0921 15.9492C15.988 15.9219 15.8146 15.8928 15.75 15.8043C16.0458 15.8043 16.3195 15.5515 16.3744 15.3143L16.12 15.3376C15.9582 15.3376 15.9032 15.2783 15.7732 15.2676V15.221C15.8772 15.1928 15.9784 15.0771 15.9813 14.941C15.8011 15.0372 15.4552 15.0888 15.2644 14.9643C15.1517 14.8904 15.2316 14.8846 15.0466 14.8574C14.6526 14.7971 14.2508 14.6192 14.0051 14.2983C13.9511 14.2283 13.9 14.1914 13.8769 14.101H13.8307C13.821 14.2176 13.7651 14.3586 13.7382 14.4743C13.715 14.5706 13.6717 14.7631 13.6688 14.871C13.5185 14.7903 13.372 14.6454 13.266 14.5074C13.1706 14.3839 13.0126 14.1924 12.975 14.031C12.8796 14.0563 12.8758 14.1146 12.8228 14.204C12.7072 14.3994 12.5318 14.6824 12.5125 14.9176H12.4663C12.4566 14.8029 12.3285 14.521 12.2813 14.4276C12.2283 14.3217 12.1136 14.0611 12.0038 14.031C11.9412 14.3022 11.5471 14.7446 11.31 14.871C11.3081 14.7631 11.2638 14.5706 11.2407 14.4743C11.2127 14.3586 11.1578 14.2176 11.1482 14.101H11.1019C11.0711 14.2157 10.9092 14.3761 10.8215 14.4481L10.4313 14.7076C10.2656 14.7922 10.1808 14.8224 9.95144 14.8535C9.67491 14.8914 9.76933 15.0343 9.34441 15.0343C9.20855 15.0343 9.08618 14.9886 8.99754 14.941C9.00043 15.0819 9.09871 15.1918 9.20566 15.221V15.2676C9.06884 15.2793 8.95514 15.3376 8.76629 15.3376C8.68632 15.3376 8.67668 15.3201 8.60442 15.3143C8.65934 15.5515 8.93298 15.8043 9.22879 15.8043C9.12762 15.9433 8.62561 16.0143 8.46567 16.0143C8.01184 16.0143 7.62835 15.9531 7.3152 15.6585C6.89413 15.2638 6.81223 14.7475 7.06275 14.2021C7.20825 13.8842 7.45009 13.5575 7.04155 13.2746C6.91822 13.189 6.81512 13.1288 6.69468 13.0413C6.57616 12.9547 6.48656 12.8769 6.37093 12.7846C5.93637 12.4375 5.41028 11.8785 5.15783 11.3719C5.11544 11.2874 5.12218 11.2388 5.04317 11.1843C5.04317 11.756 5.04992 12.1711 5.23781 12.6679C5.30526 12.8458 5.3438 12.9119 5.4363 13.051V13.05Z" fill="#142036"/>
<path fill-rule="evenodd" clip-rule="evenodd" d="M10.8706 25.4867L10.5334 25.8931C10.227 26.3062 9.89072 26.9392 9.8753 27.4924C9.857 28.1224 10.1441 28.6542 10.7184 28.8836C10.9275 28.9672 11.072 29.01 11.3563 29.01C11.1963 28.3158 11.1154 27.9726 11.2609 27.2337C11.3129 26.9693 11.4025 26.6981 11.5095 26.4813C11.5817 26.3344 11.8024 25.9553 11.9103 25.8824C11.8226 26.2615 11.761 26.3743 11.6819 26.8419C11.5548 27.5974 11.5114 28.6882 12.0895 29.2715C12.1637 29.3464 12.3506 29.4874 12.4692 29.4981C12.5829 29.5088 12.791 29.3668 12.8536 29.3065C13.4635 28.729 13.4259 27.6285 13.2988 26.8614C13.2178 26.3724 13.1619 26.2936 13.0675 25.8814C13.3286 26.0583 13.6389 26.8361 13.7179 27.2318C13.8634 27.9697 13.7834 28.3139 13.6225 29.0081C14.2035 29.0081 14.7826 28.6979 14.9975 28.1554C15.3424 27.2853 14.8183 26.3587 14.2902 25.6986C14.2295 25.6237 14.1534 25.5528 14.1081 25.4857C14.1958 25.5061 14.3509 25.6228 14.4251 25.6792C14.5909 25.8036 14.8173 26.0262 14.9474 26.2022C15.2653 26.6319 15.511 27.1803 15.5197 27.749C15.5236 27.995 15.459 28.0932 15.4484 28.2157C15.5043 28.1885 15.6296 28.1797 15.7115 28.1544C16.0612 28.0475 16.5411 27.8122 16.7569 27.5293C16.8465 27.4117 16.9853 27.2726 17.0209 27.119C16.9043 27.1219 16.8754 27.1608 16.729 27.1346C16.3214 27.0607 16.359 26.5026 16.1489 26.0622C16.0343 25.8221 15.8965 25.7929 15.8647 25.6724C16.0275 25.6286 16.2067 25.3243 16.2115 25.1124C15.8117 25.2067 15.671 25.2514 15.1565 25.0803C14.985 25.0239 14.8607 24.9772 14.6988 24.9121L14.2459 24.7157C14.1351 24.7906 14.1187 24.7974 13.9684 24.8324C14.0291 24.916 14.0657 24.8781 14.2228 24.949L14.9907 25.3642C15.169 25.4857 15.5322 25.7472 15.5602 25.9815C15.5756 26.1108 15.5207 26.2071 15.4484 26.2557C15.4301 26.1876 15.3472 26.0933 15.3 26.0321C15.1671 25.86 14.7749 25.5119 14.5918 25.3933C14.3664 25.2485 14.2295 25.1619 13.9742 25.056C13.8104 24.9879 13.8528 25.0657 13.8528 25.2524C13.714 25.2524 13.7449 25.2757 13.6158 25.2601C13.5204 25.2485 13.4173 25.2349 13.344 25.229C13.4722 25.4225 14.1881 25.9825 14.4521 26.841C14.5032 27.0082 14.534 27.226 14.4136 27.3806C14.3558 27.4554 14.3471 27.4311 14.269 27.4681C14.1756 26.3354 13.3103 25.5742 13.2747 25.4381C13.1388 25.475 13.1359 25.6646 12.975 25.6675C12.8873 25.6694 12.6532 25.546 12.5809 25.5081C12.5809 25.7433 12.6089 25.9718 12.6262 26.1857C12.6455 26.4268 12.6503 26.6592 12.6503 26.9081C12.6503 27.3407 12.7322 28.0115 12.4884 28.1914C12.2446 28.0115 12.3265 27.3436 12.3265 26.9081C12.3265 26.3578 12.3959 25.9096 12.3959 25.5081C12.3198 25.5489 12.1069 25.6597 12.0201 25.6665C11.9354 25.6733 11.8901 25.6237 11.8457 25.5732C11.7783 25.4964 11.7995 25.4643 11.7022 25.4381C11.6877 25.4935 11.4372 25.7793 11.3784 25.8581C11.2744 25.9971 11.1597 26.1653 11.0778 26.3247C10.888 26.6951 10.7444 27.0257 10.7078 27.4681C10.649 27.4399 10.545 27.4331 10.4929 27.2415C10.36 26.7535 11.0566 25.8201 11.4073 25.4672C11.4883 25.3865 11.5721 25.3194 11.6328 25.2281L11.1241 25.2514C11.1241 25.0754 11.2233 24.9033 10.7463 25.1736L10.2771 25.4701C10.1172 25.581 10.0025 25.6937 9.86856 25.8279C9.78955 25.9076 9.5583 26.139 9.52747 26.2537C9.36559 26.1449 9.37523 25.9076 9.54385 25.7336C9.84736 25.4206 10.4457 25.0394 10.8716 24.9033C10.9583 24.8751 10.9622 24.8907 11.0065 24.8294C10.8562 24.7944 10.8398 24.7876 10.729 24.7128C10.649 24.7312 10.5883 24.774 10.518 24.8032C10.2366 24.9189 10.1624 24.9636 9.81942 25.0783C9.63731 25.1386 9.5159 25.1571 9.30296 25.1872C9.07364 25.2203 8.96187 25.1561 8.76434 25.1094C8.76916 25.3214 8.94934 25.6257 9.11122 25.6694C9.08713 25.7589 9.02353 25.7861 8.96669 25.8503C8.92814 25.894 8.85877 25.9971 8.83468 26.0437C8.68051 26.3412 8.64968 26.8001 8.47046 27.0062C8.40687 27.0792 8.37989 27.1035 8.26716 27.1278C8.11106 27.1618 8.08023 27.119 7.95593 27.1161C8.03976 27.4807 8.63041 27.9182 9.00619 28.0631C9.09291 28.0961 9.16325 28.1194 9.24804 28.1457C9.31549 28.1671 9.47736 28.1875 9.52843 28.2128C9.52072 28.1253 9.49856 28.0971 9.48122 28.0037C9.43497 27.749 9.46195 27.5449 9.51879 27.294C9.61997 26.8517 9.76353 26.5658 10.0102 26.2265C10.1547 26.0282 10.3455 25.8318 10.5392 25.6869C10.6163 25.6286 10.7791 25.5051 10.8697 25.4837L10.8706 25.4867Z" fill="#142036"/>
<path fill-rule="evenodd" clip-rule="evenodd" d="M16.7213 21.5667C16.7213 22.1656 16.6249 22.2861 16.6056 22.5233C16.5074 22.4562 16.3041 22.2093 16.0506 22.15C16.0506 22.3085 16.0632 22.4776 16.041 22.6303L15.9581 23.06C15.8888 23.0415 15.7491 22.9278 15.6623 22.8685C15.5467 22.7897 15.4552 22.7508 15.3338 22.6867C15.3424 22.7917 15.3521 22.7567 15.406 22.8704C15.7144 23.5237 15.4716 24.0662 15.5323 24.2121C15.592 24.355 15.8175 24.3171 16.0054 24.319L16.5498 24.3531C16.9872 24.4182 17.628 24.4221 18.0124 24.6739C18.207 24.8012 18.1512 24.8946 18.3718 25.1979C18.42 25.264 18.4508 25.3156 18.5481 25.3243C18.5751 25.2086 18.6628 25.0783 18.738 25.0025C18.8825 24.8567 19.1629 24.6544 19.2419 24.9976H19.2881C19.2978 24.879 19.4481 24.671 19.5425 24.671C19.6543 24.671 19.7188 24.6622 19.8162 24.8149C19.8566 24.8781 19.9048 24.9549 19.9125 25.0443H19.9588C19.9626 24.9986 19.9713 24.9519 19.9906 24.9131C20.0811 24.7332 20.3191 24.8703 20.427 24.9675C20.5523 25.0803 20.559 25.1532 20.6294 25.3C20.7084 25.2465 20.8741 24.9938 20.929 24.9024C21.1449 24.5397 21.0562 24.5854 21.1381 24.4133H18.3863C18.0028 24.4133 18.0625 24.5125 18.0625 23.9H19.3344V22.57C18.7987 22.6147 18.2523 23.131 18.102 23.6832C18.0818 23.7581 18.1049 23.83 17.8775 23.83C17.6501 23.83 17.3167 23.7512 17.1009 23.7036C16.7666 23.6297 16.4669 23.5724 16.4669 23.34C16.4669 23.1971 16.6259 23.0367 16.7675 23.0367C16.9275 23.0367 17.1703 23.0775 17.2907 23.0512C17.4526 23.0153 17.5451 22.9219 17.6231 22.8033C17.1886 22.8033 17.1404 22.5331 17.1134 22.1276C17.0922 21.801 17.0074 21.3829 16.6981 21.3567C16.7001 21.4626 16.7213 21.449 16.7213 21.5667Z" fill="#142036"/>
<path fill-rule="evenodd" clip-rule="evenodd" d="M11.3563 12.9333L11.0845 12.5542C10.992 12.4414 10.8918 12.2858 10.7781 12.21C10.7386 12.2936 10.7145 12.3831 10.6702 12.4744L10.4033 12.9751C10.2501 13.2211 10.4236 13.4262 10.2549 13.9921C10.1807 14.241 10.1393 14.3333 10.015 14.52C10.2723 14.52 10.491 14.3751 10.6702 14.2244C10.8254 14.0942 10.7338 14.1661 10.8649 14.0242C10.968 13.9133 11.1366 13.61 11.1481 13.47C11.2233 13.5254 11.3129 13.7519 11.364 13.8589C11.4382 14.0144 11.4767 14.1544 11.5181 14.3333C11.6386 14.2439 11.9411 13.6275 11.9575 13.4233H12.0038C12.024 13.5001 12.4104 13.9746 12.4663 14.2167H12.5125C12.5405 14.0942 12.7563 13.7442 12.8459 13.6197C12.8912 13.5565 12.9557 13.4953 12.975 13.4233H13.0213C13.0386 13.6275 13.3402 14.2439 13.4606 14.3333C13.5001 14.1632 13.5377 14.0232 13.6071 13.8744C13.6562 13.7685 13.7564 13.5244 13.8306 13.47C13.847 13.6703 14.084 14.0125 14.2315 14.1622C14.2729 14.204 14.2546 14.1807 14.296 14.2137C14.4887 14.3703 14.6843 14.52 14.9638 14.52C14.4829 13.7947 14.7412 13.2454 14.5851 12.9887L14.3163 12.49C14.2729 12.4006 14.243 12.2985 14.2006 12.21C14.0012 12.3451 13.7545 12.7797 13.6225 12.9333C13.6225 12.7078 13.5743 12.2615 13.53 12.07C13.4491 12.0924 13.3228 12.1983 13.2217 12.2489C12.6859 12.5182 12.763 12.3199 12.6195 12.6212C12.5742 12.7175 12.5144 12.8779 12.5115 13.0024H12.4653C12.4624 12.8769 12.4036 12.7165 12.3574 12.6212C12.263 12.4229 12.3092 12.4618 12.0982 12.3928C11.7359 12.2751 11.5374 12.0933 11.4478 12.069C11.4035 12.2606 11.3553 12.7068 11.3553 12.9324L11.3563 12.9333Z" fill="#142036"/>
<path fill-rule="evenodd" clip-rule="evenodd" d="M8.81253 9.43333C8.78941 9.33417 8.73063 9.28167 8.67956 9.19222C8.60633 9.06194 8.59863 9.03375 8.78652 9.03472C9.04185 9.03569 9.29623 9.03667 9.55157 9.03667C9.51881 9.06486 9.51688 9.06778 9.46677 9.09111C9.07654 9.27097 9.31357 9.095 8.81157 9.43333H8.81253ZM8.11878 8.64C8.10144 8.66625 8.04941 8.71875 8.04941 8.73333C8.04941 8.97833 8.33558 9.49458 8.49553 9.68319C8.54081 9.73667 8.56297 9.75222 8.60441 9.80667C8.72485 9.96611 8.75376 9.95153 8.853 10.0458L9.24612 10.3725C9.33766 10.4483 9.41185 10.5037 9.5005 10.5825C9.55446 10.6301 9.57855 10.6331 9.62672 10.6885C9.69321 10.7643 9.65756 10.7837 9.75969 10.811C9.75969 10.6243 9.86279 10.4736 9.89844 10.321H9.94469C9.97263 10.425 10.1287 10.565 10.2048 10.6418C10.2983 10.7361 10.4014 10.8771 10.5691 10.881C10.4717 10.46 10.4997 10.5426 10.4997 10.111C10.8475 10.3462 11.1925 10.5932 11.6926 10.4746C11.7957 10.4503 11.8168 10.4133 11.9103 10.391V10.3443C11.5846 10.3171 11.2908 10.0244 11.1472 9.80764C11.4613 9.80764 11.5268 9.795 11.7716 9.73764V9.66764C11.6184 9.655 11.3987 9.48778 11.3322 9.38764C11.5808 9.36722 11.8949 9.17667 12.0028 9.0143C11.9546 8.99097 11.5702 9.01139 11.4709 8.8743C11.6791 8.81792 11.8506 8.4193 11.9334 8.2443C11.839 8.25208 11.8178 8.28222 11.7484 8.3143C11.6916 8.34055 11.6222 8.36097 11.5634 8.3843C11.4459 8.43097 11.2965 8.47764 11.1568 8.51069C10.8446 8.58361 10.5508 8.60014 10.2193 8.63805L8.11878 8.64194V8.64Z" fill="#142036"/>
<path fill-rule="evenodd" clip-rule="evenodd" d="M15.4263 9.03666C15.6729 9.03666 15.9206 9.03861 16.1672 9.03569C16.5478 9.03083 16.2202 9.19805 16.1653 9.43333C15.6267 9.06972 15.7028 9.20194 15.4793 9.07555C15.432 9.04833 15.4503 9.05903 15.4253 9.03666H15.4263ZM13.5069 8.87333C13.4163 8.99875 13.1244 9.00069 12.9981 8.99C13.0155 9.19805 13.477 9.37208 13.6456 9.38667C13.5792 9.4868 13.3595 9.65403 13.2063 9.66667V9.73667C13.451 9.79403 13.5165 9.80667 13.8306 9.80667C13.6871 10.0235 13.3932 10.3161 13.0675 10.3433V10.39C13.1677 10.4133 13.265 10.5067 13.53 10.5067C13.9183 10.5067 14.2421 10.2694 14.4781 10.11C14.4781 10.5417 14.5061 10.459 14.4088 10.88C14.6275 10.8751 15.011 10.4026 15.0331 10.32H15.0794C15.115 10.4726 15.2181 10.6233 15.2181 10.81C15.3164 10.7837 15.2808 10.7731 15.3405 10.7001C15.3819 10.6496 15.4157 10.635 15.4658 10.5932L16.1027 10.0692C16.1605 10.0108 16.1836 10.0031 16.2414 9.9525C16.5035 9.72111 16.9294 9.07069 16.9294 8.73333C16.9294 8.71875 16.8773 8.66625 16.86 8.64C15.9157 8.64 14.7152 8.70708 13.8403 8.51361C13.7044 8.48347 13.5502 8.43778 13.4308 8.39014L13.0444 8.24333C13.1292 8.42028 13.2968 8.81694 13.5069 8.87333Z" fill="#142036"/>
<path fill-rule="evenodd" clip-rule="evenodd" d="M21.7625 9.76C21.8531 9.95055 21.9012 10.4649 21.9244 10.74C22.1537 10.5854 22.3406 10.3297 22.5083 10.1392C22.6711 9.95444 22.8879 9.64333 23.0161 9.43819C23.0845 9.32833 23.2608 9.01917 23.2887 8.89667C23.3514 8.94333 23.4044 9.06972 23.4044 9.17667C23.4044 9.51111 23.1731 9.77458 23.0218 9.98069C22.966 10.0556 22.9371 10.0731 22.8831 10.144L22.0333 10.9432C21.8059 11.124 21.9812 11.0754 21.749 11.7297C21.7201 11.8114 21.6979 11.8717 21.6633 11.9465C21.6257 12.0282 21.5862 12.0671 21.5785 12.1643C21.6546 12.1235 21.7172 12.0739 21.7866 12.0243L22.4013 11.5479C22.7819 11.2456 23.5296 10.529 23.7917 10.0342C24.1925 9.27486 24.3005 8.60111 23.9073 7.80972C23.8437 7.68042 23.5932 7.25555 23.4294 7.24194C23.361 7.53847 22.8397 8.33278 22.6759 8.58167C22.5844 8.72069 21.9205 9.65694 21.7644 9.76194L21.7625 9.76Z" fill="#142036"/>
<path fill-rule="evenodd" clip-rule="evenodd" d="M0.834412 8.61667C0.834412 9.28458 0.876807 9.42167 1.18129 10.0167C1.22175 10.0954 1.26511 10.1557 1.31522 10.2315L1.638 10.6525C1.70352 10.7215 1.75652 10.7711 1.82397 10.8392C2.23058 11.2494 2.51097 11.511 2.96576 11.8571L3.40225 12.1633C3.39454 12.069 3.36274 12.0389 3.32516 11.9611C3.24422 11.7949 3.13534 11.4633 3.09873 11.2796C3.04188 10.9908 3.16618 11.1056 2.71813 10.7536L2.26334 10.3258C2.00319 10.0643 1.57537 9.56167 1.57537 9.2C1.57537 9.07264 1.61681 8.95208 1.691 8.89667C1.77001 9.24083 2.29706 9.92236 2.54277 10.2306C2.65357 10.3696 2.89446 10.6321 3.05537 10.74C3.0785 10.4649 3.12667 9.95056 3.21725 9.76C3.13824 9.70653 3.15365 9.69778 3.09488 9.62681C2.75667 9.21945 2.62274 9.05806 2.3067 8.57875C2.16506 8.36486 2.02438 8.15583 1.90105 7.93806C1.80566 7.76986 1.59368 7.41597 1.55321 7.23903C1.30558 7.25945 0.836339 8.1607 0.836339 8.6157L0.834412 8.61667Z" fill="#142036"/>
<path fill-rule="evenodd" clip-rule="evenodd" d="M10.6394 4.60333C10.6394 4.91736 10.676 5.12055 10.7695 5.40542C10.8032 5.5075 10.9477 5.95667 11.0557 5.95667H13.9231C14.085 5.95667 14.3394 5.0243 14.3394 4.69667C14.3394 4.51292 14.3201 4.39917 14.2084 4.24555C14.0147 3.98305 13.5888 3.76333 13.2294 3.76333C13.2294 4.56639 12.578 7.09125 11.9652 4.94555C11.8747 4.62764 11.7494 4.09875 11.7494 3.76333C11.3264 3.76333 10.6394 4.11722 10.6394 4.60333Z" fill="#142036"/>
<path fill-rule="evenodd" clip-rule="evenodd" d="M21.5775 12.35V12.3967C21.9215 12.3967 22.6624 12.63 22.6644 12.63C22.8831 12.63 23.7821 11.9942 24.022 11.7832C24.1607 11.6617 24.1675 11.5956 24.1675 11.8833C24.1675 12.2042 23.5672 12.4997 23.3119 12.63C22.8551 12.8624 22.8532 12.7428 22.6412 13.0267C22.5651 13.1287 22.4794 13.2094 22.3734 13.2931C22.2674 13.3757 22.1961 13.4574 22.0814 13.5351L21.8376 13.7092C21.8087 13.7325 21.7856 13.7519 21.7625 13.7733C21.9273 13.7694 22.2019 13.6936 22.3464 13.6625C22.9303 13.5371 23.9083 13.1803 24.3236 12.7642C24.3833 12.7039 24.4411 12.6514 24.4961 12.5882C25.0906 11.9135 25.131 10.9364 24.7215 10.1557C24.6444 10.2082 24.4353 10.5076 24.2455 10.6554C24.1492 10.7303 23.9044 10.9733 23.6973 11.1289C23.2174 11.4896 23.0238 11.6228 22.4938 11.9212C22.3512 12.0019 21.7037 12.3374 21.5756 12.3481L21.5775 12.35Z" fill="#142036"/>
<path fill-rule="evenodd" clip-rule="evenodd" d="M0.00192261 11.0667C0.00192261 11.6422 0.00481322 11.9494 0.381557 12.4569C0.868145 13.1122 1.84903 13.4943 2.63239 13.6625C2.77692 13.6936 3.05153 13.7694 3.21629 13.7733L2.91085 13.5449C2.78462 13.4593 2.43582 13.1569 2.34718 13.0403C2.2171 12.8711 2.27299 12.8857 2.0533 12.8001C1.67752 12.6524 1.65439 12.6135 1.33546 12.4511C1.20924 12.3869 1.11866 12.314 1.01846 12.2343C0.842129 12.0924 0.811296 11.9553 0.811296 11.7433C0.811296 11.5985 0.903796 11.7482 1.12445 11.9174C1.34606 12.0856 2.09955 12.631 2.31442 12.631C2.31634 12.631 3.05153 12.3976 3.40129 12.3976V12.351C3.10741 12.3267 2.00705 11.6451 1.66692 11.4176C1.40195 11.2407 1.16684 11.0346 0.92403 10.8382C0.723614 10.6758 0.554031 10.4668 0.423953 10.3394C0.359396 10.2753 0.317 10.1994 0.256297 10.1586C0.155125 10.3482 0.00192261 10.7799 0.00192261 11.0667Z" fill="#142036"/>
<path fill-rule="evenodd" clip-rule="evenodd" d="M7.35565 22.8033C7.59654 23.1669 7.83164 23.0367 8.18815 23.0367C8.45024 23.0367 8.5119 23.2126 8.5119 23.41C8.5119 23.6317 7.2381 23.8533 6.84691 23.8533C6.23313 23.8533 6.23024 23.3867 5.99128 23.3867C5.55865 23.3867 5.67428 24.1081 5.83808 24.3113C5.94503 24.4454 6.15316 24.4824 6.15316 24.0633C6.15316 23.9826 6.13581 23.9729 6.13003 23.9C6.23602 23.9719 6.35646 24.109 6.46053 24.1965C7.33735 24.9374 6.47305 24.5553 8.25367 24.3628C8.41073 24.3462 8.68823 24.319 8.85781 24.32C9.05149 24.32 9.31935 24.356 9.41378 24.251C9.48122 24.1761 9.45617 24.0906 9.44076 23.9894C9.31453 23.1806 9.63154 22.8451 9.64503 22.6867C9.53133 22.7469 9.44172 22.7839 9.32995 22.8587C9.27214 22.8976 9.23167 22.9229 9.17867 22.9628C9.12375 23.0046 9.09292 23.0396 9.02065 23.06C9.01487 22.991 8.99271 22.9229 8.97826 22.8694C8.95706 22.7868 8.95417 22.7469 8.94068 22.6507C8.91755 22.4951 8.92815 22.3153 8.92815 22.15C8.8212 22.1753 8.70846 22.2511 8.62271 22.3085C8.50998 22.3843 8.46758 22.4601 8.37315 22.5233C8.36641 22.4465 8.34328 22.3824 8.32787 22.3114C8.31149 22.2326 8.30571 22.1811 8.29318 22.0897C8.2161 21.5608 8.27487 21.6308 8.28065 21.3557C7.97136 21.3819 7.88657 21.8 7.86537 22.1267C7.83935 22.5321 7.79021 22.8024 7.35565 22.8024V22.8033Z" fill="#142036"/>
<path fill-rule="evenodd" clip-rule="evenodd" d="M21.8319 13.96C21.8617 14.0446 21.8637 13.9999 22.0265 14.1136C22.1074 14.17 22.1595 14.2137 22.2385 14.2731C22.6172 14.5589 22.382 14.5035 22.7116 14.4733C23.0401 14.4432 23.6539 14.3071 23.89 14.1924C23.89 14.4549 23.6992 14.5774 23.4978 14.6367C22.8773 14.8165 22.6114 14.6386 22.382 14.7942C22.2173 14.9069 21.564 15.1471 21.5081 15.1957C21.7712 15.2181 21.96 15.2657 22.2944 15.2657C23.334 15.2657 24.208 15.2812 24.7784 14.4121C25.0164 14.0494 25 13.6382 25 13.2124C25 13.0879 24.9142 13.1832 24.709 13.2687C24.2089 13.4778 24.1704 13.4992 23.5923 13.6819C23.1481 13.8219 22.4119 13.959 21.8319 13.959V13.96Z" fill="#142036"/>
<path fill-rule="evenodd" clip-rule="evenodd" d="M2.2219 15.2667L3.07753 15.2433C3.22398 15.2375 3.3425 15.2074 3.47065 15.1967C3.4138 15.1471 3.25674 15.1033 3.17966 15.0703C3.0756 15.0256 2.98503 14.9828 2.89156 14.941C2.78943 14.8953 2.70367 14.8671 2.61021 14.8049C2.34427 14.6289 2.16024 14.8214 1.49925 14.6425C1.28534 14.5842 1.08878 14.4597 1.08878 14.1933C1.21597 14.2546 2.36836 14.5919 2.52927 14.4578C2.59961 14.3994 2.56685 14.4033 2.7268 14.2828L3.10643 14.0125C3.14594 13.9765 3.1257 14.0154 3.14594 13.959C2.16891 13.959 1.50214 13.7179 0.691802 13.4486C0.56076 13.4049 0.460552 13.3611 0.347818 13.3057C0.233157 13.2483 0.114641 13.2036 0.000943724 13.1424C0.000943724 13.7869 -0.053978 14.3051 0.516437 14.7922C0.956775 15.1675 1.60813 15.2657 2.22094 15.2657L2.2219 15.2667Z" fill="#142036"/>
<path fill-rule="evenodd" clip-rule="evenodd" d="M10.7319 24.4367C10.7733 24.5932 11.1298 24.6749 11.3332 24.5767C11.2541 24.9179 11.2917 24.8197 11.31 25.0433C11.3948 25.0433 11.4748 25.0482 11.5557 25.0346C11.6386 25.021 11.6858 24.9986 11.7725 24.9967C11.7764 25.1863 11.9103 25.3846 12.0269 25.4633C12.2456 25.4118 12.3198 25.3438 12.4894 25.2533C12.658 25.3438 12.7332 25.4118 12.9519 25.4633C13.0685 25.3846 13.2024 25.1863 13.2063 24.9967C13.2891 25.0035 13.3421 25.0326 13.4173 25.0404C13.4905 25.0492 13.5927 25.0433 13.6688 25.0433C13.6871 24.8197 13.7247 24.9179 13.6456 24.5767C13.796 24.6496 13.926 24.6301 14.0831 24.5738C14.166 24.5436 14.2228 24.5281 14.2469 24.4367C13.9858 24.4143 13.6736 24.2286 13.5397 24.0536C13.4828 23.9797 13.4144 23.9175 13.3913 23.83L12.9981 24.25C12.9403 24.2218 12.9143 24.2218 12.8546 24.1849C12.7428 24.1168 12.5453 23.9768 12.5125 23.8533H12.4663C12.4162 24.0429 12.1406 24.1722 11.9807 24.25L11.5875 23.83C11.5278 24.0546 11.0903 24.4065 10.7319 24.4367Z" fill="#142036"/>
<path fill-rule="evenodd" clip-rule="evenodd" d="M1.36052 20.1025L1.66115 19.7875C1.72571 19.8322 1.99068 20.0724 1.99068 20.1433C1.99068 20.2017 1.94154 20.3076 1.91167 20.3436C1.8712 20.3922 1.7787 20.4311 1.71318 20.4467L1.36052 20.1025ZM1.18131 19.3967C1.21021 19.5221 1.28537 19.6057 1.29693 19.7467C1.2237 19.7117 1.02136 19.6533 0.979926 19.5969C0.948129 19.5532 0.942348 19.3967 1.18131 19.3967ZM1.85193 19.5133C1.85193 19.9294 1.32391 19.5639 1.52722 19.2294C1.55131 19.1906 1.56383 19.2051 1.56576 19.1585C1.57443 19.0019 1.35956 19.1604 1.32006 19.1867C1.30271 18.9738 1.08206 18.9951 0.901879 19.0214C0.563677 19.07 0.603182 19.1507 0.603182 19.5833C0.603182 19.6932 0.660994 19.7613 0.765057 19.77C0.737114 19.8769 0.695682 19.8283 0.695682 19.98C0.695682 20.0694 0.688937 19.9888 0.718807 20.05C0.839249 20.0179 0.802635 19.9333 0.996306 19.9333C1.24586 19.9333 1.41737 20.3067 1.11193 20.3067C1.03292 20.3067 1.08013 20.2688 0.987634 20.2483C0.893207 20.2269 0.935603 20.3125 0.418182 20.19C0.418182 20.5001 0.555005 20.6946 0.834431 20.82C1.15722 20.9658 1.2873 20.8336 1.45881 20.82C1.45881 21.0582 1.36631 21.0767 1.59755 21.0767C1.79123 21.0767 1.7363 20.7131 1.7363 20.68C1.7363 20.609 1.77677 20.6013 1.8288 20.5867C1.87987 20.6936 1.68427 21.2371 2.16026 20.9444C2.1911 20.926 2.36357 20.8336 2.36935 20.8288C2.38958 20.8103 2.56977 20.4263 2.56977 20.4C2.56977 20.1657 2.32599 20.26 2.13039 20.26C2.1699 20.0899 2.2412 20.1667 2.38477 20.1667C2.52833 20.1667 2.68539 20.0597 2.56977 19.8167C2.44836 19.8497 2.56495 19.8633 2.40789 19.8633C2.22482 19.8633 2.55339 19.6563 2.30094 19.1546C2.19688 18.9475 2.01669 18.79 1.71414 18.79C1.72474 18.9213 1.78352 18.9106 1.78448 19.139C1.78641 19.5989 1.85289 19.4171 1.85289 19.5133H1.85193Z" fill="#142036"/>
<path fill-rule="evenodd" clip-rule="evenodd" d="M14.7788 7.1C14.7788 7.41792 14.8221 7.54722 14.9011 7.83986C14.9214 7.91375 14.9233 7.98667 15.01 7.98667H17.0219C17.1028 7.98667 17.1057 7.93125 17.1259 7.85833C17.2445 7.43445 17.3948 6.91431 16.9891 6.59639C16.859 6.49431 16.6374 6.37667 16.4206 6.37667C16.4206 6.65375 16.28 7.69695 16.0275 7.73C15.9514 7.7125 15.9427 7.70958 15.8965 7.65222C15.8579 7.60361 15.8377 7.56083 15.8155 7.50056C15.6989 7.17875 15.5872 6.72958 15.5872 6.37764C15.2201 6.38542 14.7778 6.70819 14.7778 7.10097L14.7788 7.1Z" fill="#142036"/>
<path fill-rule="evenodd" clip-rule="evenodd" d="M7.72565 7.12333C7.72565 7.35861 7.74106 7.41403 7.79502 7.63667C7.81237 7.70861 7.82778 7.76305 7.84898 7.83889C7.86921 7.91278 7.87114 7.98569 7.95786 7.98569H9.96973C10.0709 7.98569 10.0892 7.80972 10.1278 7.65417C10.2222 7.26722 10.2838 6.88222 9.94082 6.59153C9.83291 6.50014 9.57661 6.37958 9.39257 6.37472C9.39257 6.91722 9.01679 8.57972 8.66606 7.17778C8.59476 6.89097 8.56007 6.70139 8.56007 6.37472C8.20067 6.37472 7.72757 6.67708 7.72757 7.12139L7.72565 7.12333Z" fill="#142036"/>
<path fill-rule="evenodd" clip-rule="evenodd" d="M23.0575 16.0367C23.0228 16.4635 22.279 16.3089 21.9726 16.2447C21.6372 16.1747 21.8415 16.199 21.3328 16.3031C21.1747 16.3351 21.0071 16.3526 20.8606 16.3867C20.9252 16.4751 21.6469 16.6492 21.7529 16.6764C22.3252 16.8212 23.0893 16.971 23.6125 16.5976C23.9141 16.3818 24.1347 16.094 24.2321 15.7294C24.3438 15.3133 24.3573 15.571 23.1259 15.571C22.6624 15.571 22.2857 15.534 21.8473 15.4611L21.4609 15.3843L21.802 15.8801C21.8627 15.9686 21.855 15.956 21.9822 15.9783C22.3426 16.0406 22.6412 16.0376 23.0565 16.0376L23.0575 16.0367Z" fill="#142036"/>
<path fill-rule="evenodd" clip-rule="evenodd" d="M1.85191 15.57C1.59946 15.57 1.08878 15.5486 0.869095 15.5097C0.79972 15.4971 0.726491 15.4689 0.708184 15.5097C0.697585 15.5331 0.731309 15.6731 0.740944 15.711C0.910527 16.3682 1.45878 16.831 2.19878 16.831C2.55914 16.831 2.92433 16.7532 3.22591 16.6774L3.91003 16.481C3.99385 16.4586 4.07383 16.4489 4.11815 16.3876L3.43404 16.2612C3.01393 16.1689 3.40224 16.1815 2.8694 16.271C2.67862 16.3031 2.29224 16.375 2.11206 16.2875C2.01956 16.2428 1.93092 16.1582 1.92128 16.0367C2.32789 16.0367 2.62177 16.0396 2.97539 15.9803C3.09776 15.9599 3.10643 15.9744 3.16617 15.8928C3.20568 15.8393 3.23362 15.7839 3.27602 15.7236C3.34154 15.6283 3.49956 15.4475 3.5169 15.3833C3.43693 15.3901 2.98503 15.501 2.72873 15.5214C2.43485 15.5447 2.16698 15.57 1.85191 15.57Z" fill="#142036"/>
<path fill-rule="evenodd" clip-rule="evenodd" d="M1.69003 17.2267C1.71508 17.5281 2.40883 18.2533 2.93878 18.2533C3.66722 18.2533 4.25016 17.9199 4.82539 17.5669C4.90055 17.5212 4.97763 17.4785 5.02003 17.4133L4.48815 17.4367C4.10274 17.4367 4.41589 17.3414 4.04107 17.5456C3.7838 17.6865 3.32709 17.8265 3.1469 17.4833C3.39453 17.4775 3.72888 17.3433 3.92641 17.2665C4.1538 17.179 4.07865 17.215 4.13164 16.9603C4.1644 16.8057 4.20102 16.689 4.23378 16.55C3.55159 16.9136 2.44738 17.2267 1.69003 17.2267Z" fill="#142036"/>
<path fill-rule="evenodd" clip-rule="evenodd" d="M21.8319 17.4833C21.6546 17.8217 21.2085 17.6894 20.9531 17.5533C20.5552 17.3424 20.878 17.4367 20.4444 17.4367C20.2488 17.4367 20.1505 17.4133 19.9587 17.4133C20.1042 17.6321 21.3549 18.2533 21.9012 18.2533C22.3522 18.2533 22.4765 18.1542 22.8127 17.8897C22.939 17.7906 22.9852 17.7274 23.0835 17.6029C23.1403 17.531 23.2791 17.3278 23.2878 17.2257C22.7636 17.2257 22.3445 17.11 21.9138 17.0021C21.5698 16.9156 21.062 16.7192 20.744 16.549L20.8818 17.1567C20.9406 17.2986 21.6912 17.4794 21.8309 17.4824L21.8319 17.4833Z" fill="#142036"/>
<path fill-rule="evenodd" clip-rule="evenodd" d="M13.2988 10.74C13.186 10.9549 13.0858 11.1376 12.9876 11.3826C12.9288 11.5294 12.7698 11.9776 12.7669 12.14C13.1225 12.0564 13.424 11.8075 13.6919 11.6267C13.7295 11.789 13.7844 12.0418 13.7844 12.2333C13.9039 12.2013 14.1862 11.7618 14.3163 11.6733C14.3616 11.8678 14.5947 12.6611 14.7778 12.8079C14.8279 12.8478 14.7566 12.8322 14.8019 12.8167V12.6553C14.7855 11.7774 15.0332 11.3642 15.0332 11.2767C15.0332 10.8654 15.0033 10.9801 14.9869 10.7867C14.8857 10.8139 14.9474 10.8372 14.8154 10.9403C14.5726 11.1308 14.3866 11.16 14.0388 11.16C14.059 11.0851 14.2488 10.7653 14.27 10.5067C14.0821 10.6068 14.1322 10.635 13.8403 10.7031C13.6688 10.7429 13.4655 10.7789 13.2988 10.74Z" fill="#142036"/>
<path fill-rule="evenodd" clip-rule="evenodd" d="M10.94 11.16C10.6182 11.16 10.2915 11.1124 10.0921 10.8722C10.0295 10.7964 10.095 10.8139 9.99189 10.7867C9.97647 10.9694 9.88108 11.159 9.99478 11.4371C10.227 12.0049 10.1653 12.7943 10.1769 12.8167C10.2039 12.8264 10.1769 12.8575 10.2559 12.735C10.4554 12.4229 10.5787 12.036 10.6625 11.6733C10.8359 11.79 11.0778 12.2022 11.1944 12.2333C11.1944 12.0418 11.2493 11.789 11.2869 11.6267C11.5808 11.825 11.8515 12.0554 12.2119 12.14C12.2042 11.7881 11.8409 11.0472 11.68 10.74C11.5133 10.7789 11.31 10.7429 11.1385 10.7031C10.8446 10.634 10.8976 10.6078 10.7088 10.5067C10.7174 10.6097 10.7704 10.7643 10.8042 10.8538L10.94 11.16Z" fill="#142036"/>
<path fill-rule="evenodd" clip-rule="evenodd" d="M3.12378 18.6033C3.15943 18.7589 3.40899 18.9903 3.53521 19.0749C4.30026 19.5901 5.07784 19.1672 5.67331 18.6082C5.72052 18.5635 5.72919 18.5654 5.7764 18.5256C5.85734 18.4585 5.87661 18.4021 5.9508 18.3282C6.01633 18.2621 6.08088 18.2106 6.1069 18.1124C5.98453 18.1415 5.87661 18.1804 5.73979 18.2086C5.54034 18.2485 5.51721 18.1999 5.38424 18.3399C5.30523 18.4225 5.23489 18.5003 5.11349 18.5353C4.9651 18.579 4.85815 18.5207 4.78878 18.4157C4.89862 18.3865 5.12891 18.2125 5.20213 18.1308C5.2744 18.0501 5.23489 18.0822 5.20888 17.8751C5.1925 17.7468 5.1819 17.67 5.1819 17.529C5.10963 17.5776 5.06531 17.6379 4.98341 17.7021C4.50068 18.0803 3.72985 18.5508 3.12378 18.6024V18.6033Z" fill="#142036"/>
<path fill-rule="evenodd" clip-rule="evenodd" d="M20.19 18.4167C19.9366 18.7987 19.5753 18.2932 19.4943 18.2553C19.4346 18.2281 19.2708 18.2164 19.1821 18.1969C19.0636 18.1697 18.975 18.1376 18.8719 18.1133C18.895 18.2008 19.1523 18.4837 19.1899 18.5158C19.2361 18.5567 19.2477 18.5567 19.2939 18.5975C19.8971 19.1351 20.6487 19.6106 21.4436 19.0749C21.5688 18.9903 21.8184 18.7589 21.855 18.6033C21.2672 18.5537 20.481 18.091 20.0079 17.7137C19.9299 17.6515 19.8663 17.5776 19.7969 17.53C19.7969 17.7147 19.7747 17.8333 19.7487 17.9986C19.7352 18.0851 19.7246 18.0686 19.7661 18.1211C19.8316 18.2047 20.084 18.3885 20.19 18.4167Z" fill="#142036"/>
<path fill-rule="evenodd" clip-rule="evenodd" d="M7.70253 9.15333C7.71024 9.25153 7.72855 9.23014 7.74878 9.31667C7.66592 9.27681 7.49826 9.29333 7.37878 9.29333C7.46068 9.16889 7.50404 9.15333 7.70253 9.15333ZM6.77753 10.53C6.89797 10.0089 7.68037 9.93792 8.17177 10.0332C8.30185 10.0585 8.45409 10.11 8.58128 10.11C8.55526 10.0108 8.54466 10.0468 8.4724 9.98653L8.16503 9.59667C8.08217 9.4693 7.87982 9.12222 7.86441 8.94333C7.57534 8.94333 7.33157 8.9618 7.12152 9.03375C6.92977 9.09889 6.69949 9.22042 6.59157 9.36236C6.18207 9.90486 6.65324 10.496 6.77753 10.53Z" fill="#142036"/>
<path fill-rule="evenodd" clip-rule="evenodd" d="M17.23 9.31667C17.2503 9.23014 17.2686 9.25153 17.2763 9.15333C17.4748 9.15333 17.5181 9.16889 17.6 9.29333C17.5172 9.29333 17.2618 9.27972 17.23 9.31667ZM16.3975 10.11C16.5922 10.11 16.8022 9.99333 17.2531 9.99333C17.7041 9.99333 18.1203 10.179 18.2013 10.53C18.3236 10.4969 18.7938 9.91167 18.3969 9.37597C18.2793 9.2175 18.0664 9.10958 17.8746 9.03958C17.6569 8.96083 17.4073 8.94333 17.1144 8.94333C17.0999 9.11639 16.9082 9.45181 16.8234 9.58306L16.5199 9.97681C16.4178 10.0731 16.4206 10.0235 16.3975 10.11Z" fill="#142036"/>
<path fill-rule="evenodd" clip-rule="evenodd" d="M4.02567 7.24C4.02567 7.7018 4.58066 7.92931 4.58066 8.71C4.58066 8.9025 4.46697 8.98708 4.44191 9.08333C4.59512 9.07069 4.77626 8.93653 4.81191 8.80333C4.9709 8.91125 5.08941 9.29528 5.08941 9.57333H5.13566C5.21178 9.24472 5.27441 9.29722 5.27441 8.85C5.27441 8.56222 5.12603 8.26861 5.01907 8.08097C4.836 7.76111 4.69629 7.625 4.69629 7.26333C4.69629 7.10097 4.8466 7.0475 4.90441 6.96C4.6722 6.96 4.55947 6.92208 4.34845 6.95903C4.19814 6.98528 4.02567 7.07181 4.02567 7.24Z" fill="#142036"/>
<path fill-rule="evenodd" clip-rule="evenodd" d="M20.0744 6.96C20.189 7.13208 20.2825 7.02222 20.2825 7.38C20.2825 7.78736 19.7044 8.14514 19.7044 8.96667C19.7044 9.21847 19.7978 9.375 19.8431 9.57333H19.8894C19.8894 9.29528 20.0079 8.91125 20.1669 8.80333C20.2025 8.93653 20.3837 9.07069 20.5369 9.08333C20.4906 8.9093 20.1784 8.69639 20.6448 7.90889C20.7826 7.67555 21.2769 7.07083 20.6303 6.95903C20.4193 6.92208 20.3066 6.96 20.0744 6.96Z" fill="#142036"/>
<path fill-rule="evenodd" clip-rule="evenodd" d="M12.4894 5.42C12.7592 5.42 13.0569 3.97625 12.9673 3.77111C12.8074 3.40361 12.2061 3.38125 12.0182 3.75458C11.9036 3.98306 12.2389 5.41903 12.4884 5.41903L12.4894 5.42Z" fill="#142036"/>
<path fill-rule="evenodd" clip-rule="evenodd" d="M5.25127 19.56C5.25801 19.6465 5.26958 19.6485 5.32835 19.6922C5.3746 19.7262 5.42085 19.7544 5.47481 19.7778C5.78603 19.9129 6.15892 19.8857 6.45666 19.7506C6.80064 19.594 7.17931 18.9825 7.23905 18.72C6.89699 18.8862 6.85364 18.7453 6.70718 18.9533C6.60504 19.0982 6.30442 19.139 6.42582 18.9533C6.45858 18.9037 6.49038 18.86 6.52218 18.8133C6.48075 18.7346 6.45858 18.6831 6.42004 18.5897L6.31405 18.3467C6.26202 18.3846 6.14447 18.6131 6.09918 18.6899C6.05775 18.7589 6.02981 18.79 5.98549 18.8551C5.94598 18.9125 5.90262 18.9776 5.85734 19.0292C5.72148 19.1828 5.43338 19.5114 5.25031 19.56H5.25127Z" fill="#142036"/>
<path fill-rule="evenodd" clip-rule="evenodd" d="M18.4556 18.8133C18.6165 19.0564 18.6618 19.07 18.4325 19.07C18.3843 19.07 18.3082 19.0039 18.2803 18.9669C18.2119 18.8756 18.2591 18.8814 18.1473 18.8444C18.0037 18.7968 17.8611 18.7783 17.7397 18.719C17.7995 18.9767 18.1723 19.5814 18.5067 19.7418C18.9885 19.9742 19.7063 19.8351 19.7285 19.559C19.4876 19.4939 19.0376 18.9475 18.8883 18.7035C18.8478 18.6374 18.8227 18.5917 18.7842 18.5285C18.7408 18.4565 18.7235 18.3894 18.6647 18.3457L18.4566 18.8124L18.4556 18.8133Z" fill="#142036"/>
<path fill-rule="evenodd" clip-rule="evenodd" d="M4.4419 23.1067C4.4101 23.2457 4.43419 23.2467 4.60378 23.2467C4.64521 23.4256 4.80516 23.6628 4.9969 23.6667C4.87838 23.9165 5.01328 23.9749 5.1395 23.8106C5.28403 23.6219 5.4276 23.551 5.4594 23.4333C5.35919 23.3653 5.32836 23.3653 5.22815 23.4333C5.18961 23.3526 5.19154 23.3264 5.12987 23.2525C4.88417 22.9599 4.83984 23.1553 4.79167 22.9871C4.75698 22.8656 4.80901 22.8354 4.65099 22.8733C4.63557 22.6818 4.25883 22.3726 4.1249 22.2375C3.95724 22.0693 3.24326 21.2886 3.03802 21.4782C2.87326 21.6308 3.27024 22.0226 3.40899 22.1665C3.45524 22.2142 3.45524 22.2229 3.49185 22.2696L4.1962 22.9589C4.2993 23.0483 4.33977 23.0969 4.44383 23.1057L4.4419 23.1067Z" fill="#142036"/>
<path fill-rule="evenodd" clip-rule="evenodd" d="M17.0681 8.43C17.5374 8.43 17.7918 8.26667 18.0432 7.94389C18.4055 7.47917 18.2533 7.10292 18.7274 6.67417C18.8179 6.5925 18.9258 6.55069 19.0338 6.49333C18.9914 6.33389 18.4788 6.07333 18.34 6.07333C17.945 6.07333 17.9469 7.03778 17.8496 7.39944C17.7831 7.64736 17.707 7.83306 17.5586 8.01583C17.4141 8.19472 17.363 8.22875 17.1732 8.30361C17.046 8.3532 17.1211 8.3182 17.0681 8.43097V8.43Z" fill="#142036"/>
<path fill-rule="evenodd" clip-rule="evenodd" d="M5.94503 6.49333C6.29479 6.68 6.48557 6.82778 6.63107 7.27111C6.67924 7.41695 6.69273 7.51125 6.7544 7.63667C6.99143 8.11986 7.31903 8.43 7.91065 8.43C7.85958 8.32306 7.92895 8.35903 7.822 8.30945C7.66013 8.23458 7.61291 8.25597 7.42984 8.02847C7.27375 7.83597 7.21112 7.69111 7.13307 7.41792C6.92784 6.69361 7.12151 5.57361 6.08956 6.33681C6.02211 6.38736 5.96815 6.40486 5.94406 6.49333H5.94503Z" fill="#142036"/>
<path fill-rule="evenodd" clip-rule="evenodd" d="M19.8431 23.9H21.115C21.115 23.5675 20.8645 23.1912 20.693 23.0192C20.508 22.8325 20.1727 22.5982 19.8431 22.57V23.9Z" fill="#142036"/>
<path fill-rule="evenodd" clip-rule="evenodd" d="M6.63877 11.1367C6.43064 11.1367 6.51062 11.125 6.36127 11.09C6.40559 11.2582 6.61564 11.4167 6.87002 11.4167C7.02611 11.4167 7.1003 11.3719 7.20918 11.3156C7.37009 11.2329 7.954 10.8557 8.04939 10.8333C8.01374 10.9082 8.01374 11.0851 8.04939 11.16C8.09371 11.1435 8.21126 10.9733 8.55043 10.8022C8.94066 10.6049 9.0823 10.6593 9.20564 10.6C9.17673 10.5601 8.77204 10.2267 8.74314 10.2267C8.34327 10.2267 7.54353 10.7458 7.21015 10.9432C7.0714 11.0249 6.84111 11.1367 6.63877 11.1367Z" fill="#142036"/>
<path fill-rule="evenodd" clip-rule="evenodd" d="M15.7731 10.6C15.9581 10.6894 16.3753 10.6262 16.8629 11.1104C16.9255 11.1726 16.8427 11.1289 16.9294 11.16C16.965 11.0851 16.965 10.9082 16.9294 10.8333C17.23 10.9043 17.6694 11.4167 18.1781 11.4167C18.3593 11.4167 18.5799 11.2329 18.6175 11.09C18.3034 11.1639 18.1646 11.1736 17.7831 10.9519C17.6164 10.8547 17.4873 10.7594 17.3071 10.6622C17.0662 10.5329 16.5247 10.2267 16.2356 10.2267C16.2067 10.2267 15.802 10.5601 15.7731 10.6Z" fill="#142036"/>
<path fill-rule="evenodd" clip-rule="evenodd" d="M9.99188 8.43C10.8446 8.43 11.4574 8.24139 11.8746 7.59972C11.9623 7.46459 12.1146 7.13695 12.1194 6.93667H11.3794C11.3476 7.32556 11.1038 7.835 10.8475 8.03333C10.65 8.18597 10.5016 8.29292 10.2029 8.31625C10.0834 8.32597 10.0564 8.30556 9.99188 8.42903V8.43Z" fill="#142036"/>
<path fill-rule="evenodd" clip-rule="evenodd" d="M14.9869 8.43C14.8684 8.20347 14.6535 8.42514 14.2459 8.12667C14.2026 8.09556 14.191 8.08 14.1438 8.04306C13.873 7.83111 13.6331 7.345 13.5994 6.9357H12.8594C12.8681 7.31389 13.2101 7.83695 13.5435 8.06542C13.9347 8.33278 14.3423 8.42903 14.9869 8.42903V8.43Z" fill="#142036"/>
<path fill-rule="evenodd" clip-rule="evenodd" d="M18.34 5.95667C18.895 5.95667 19.211 6.44958 19.5435 6.6557C19.9992 6.93861 20.2941 6.75292 20.7623 6.84917C20.9945 6.89681 20.9618 6.99111 21.0687 7.03C21.0408 6.69361 20.507 6.77333 20.0088 6.44278C19.8402 6.33097 19.7236 6.19778 19.583 6.05583C19.3016 5.77292 19.3642 5.7 19.0106 5.7C18.8025 5.7 18.42 5.83611 18.34 5.95667Z" fill="#142036"/>
<path fill-rule="evenodd" clip-rule="evenodd" d="M3.91003 7.03C4.00832 6.99403 3.99868 6.89972 4.19717 6.85306C4.65967 6.74514 4.968 6.94542 5.43532 6.65569C5.62417 6.53903 5.77063 6.35917 5.95852 6.22694C6.15412 6.08986 6.31985 5.95667 6.63878 5.95667C6.5511 5.82444 5.86602 5.53181 5.60297 5.82153C5.2243 6.23958 5.04027 6.50986 4.40529 6.68972C4.20391 6.74708 3.92834 6.80931 3.91003 7.03Z" fill="#142036"/>
<path fill-rule="evenodd" clip-rule="evenodd" d="M19.4037 21.6133C19.264 21.6133 19.2081 21.5988 19.1031 21.59V22.0333C19.2187 22.0333 19.2631 22.01 19.4037 22.01C19.3671 22.4563 19.2534 22.3833 19.7506 22.3833C19.8479 22.3833 19.8075 22.326 19.8007 22.2433C19.7911 22.1276 19.7959 22.1043 19.7737 22.01C20.1428 22.01 20.0975 22.1656 20.0975 21.66C20.0975 21.5647 20.0262 21.5988 19.978 21.6046C19.9019 21.6143 19.8518 21.6133 19.7737 21.6133C19.794 21.5268 19.7911 21.5113 19.8007 21.4033C19.8152 21.2381 19.8942 21.2633 19.4269 21.2633C19.318 21.2633 19.3874 21.4101 19.4037 21.6133Z" fill="#142036"/>
<path fill-rule="evenodd" clip-rule="evenodd" d="M11.2869 6.72667H13.6919C13.7748 6.72667 13.8441 6.62847 13.8538 6.51667H11.125C11.1308 6.58181 11.1414 6.61583 11.1722 6.65569C11.1925 6.68194 11.2407 6.72667 11.2869 6.72667Z" fill="#142036"/>
<path fill-rule="evenodd" clip-rule="evenodd" d="M8.04941 8.43H9.87628C9.9023 8.3182 9.94276 8.26181 9.96878 8.15H7.95691C7.97811 8.24236 8.02436 8.32306 8.04941 8.43Z" fill="#142036"/>
<path fill-rule="evenodd" clip-rule="evenodd" d="M15.1025 8.43H16.9294C16.9544 8.32306 17.0007 8.24236 17.0219 8.15H15.01C15.036 8.26181 15.0765 8.3182 15.1025 8.43Z" fill="#142036"/>
<path fill-rule="evenodd" clip-rule="evenodd" d="M7.67939 19.35C7.58304 19.35 7.58689 19.2343 7.58689 19.1633C7.58689 19.0107 7.65338 19.1371 7.55221 18.9893C7.5127 18.9319 7.48669 18.8814 7.47127 18.8133H7.42502C7.36913 19.0564 7.33252 18.9621 7.33252 19.3267C7.33252 19.6913 7.57148 19.9333 7.93377 19.9333C7.93377 19.5688 7.95978 19.2994 8.17465 18.9864C8.20549 18.9417 8.21705 18.9388 8.24981 18.8989C8.28931 18.8513 8.29702 18.8493 8.30377 18.79C8.1814 18.8551 7.83645 19.0272 7.78057 19.1488C7.73528 19.246 7.78057 19.35 7.67939 19.35Z" fill="#142036"/>
<path fill-rule="evenodd" clip-rule="evenodd" d="M17.045 19.7233V19.9333C17.5885 19.9333 17.7243 19.4336 17.6145 19.0088C17.5923 18.9213 17.5692 18.8824 17.5538 18.8133H17.5075C17.4921 18.8814 17.4651 18.9329 17.4266 18.9893C17.3283 19.1332 17.3919 18.9913 17.3919 19.21C17.3919 19.2819 17.3707 19.35 17.2994 19.35C17.2021 19.35 17.2397 19.2567 17.205 19.1653C17.152 19.0224 16.8022 18.8581 16.675 18.79C16.6885 18.9106 17.045 19.1653 17.045 19.7233Z" fill="#142036"/>
<path fill-rule="evenodd" clip-rule="evenodd" d="M19.2881 25.4633C19.2881 25.7618 19.3103 25.9533 19.635 25.9533C20.0638 25.9533 19.9057 24.9131 19.5656 24.8333C19.4288 24.9636 19.2881 25.2563 19.2881 25.4633Z" fill="#142036"/>
<path fill-rule="evenodd" clip-rule="evenodd" d="M12.3506 1.87333C12.314 1.85583 12.0837 1.82764 12.0269 1.82667V2.15333C12.1309 2.12903 12.2466 2.13097 12.3506 2.10667C12.3506 2.25736 12.3275 2.31667 12.3275 2.48H12.6513C12.6513 2.31667 12.6281 2.25736 12.6281 2.10667C12.7322 2.13097 12.8478 2.12903 12.9519 2.15333V1.82667C12.8941 1.82764 12.6647 1.85583 12.6281 1.87333C12.6281 1.72264 12.6513 1.66333 12.6513 1.5H12.3275C12.3275 1.66333 12.3506 1.72264 12.3506 1.87333Z" fill="#142036"/>
<path fill-rule="evenodd" clip-rule="evenodd" d="M8.74316 6.51667C8.74316 6.81028 8.79134 7.35472 8.95129 7.47333C9.11894 7.42764 9.15845 6.98528 9.17579 6.83653C9.27311 6.0325 8.86842 6.21722 8.7923 6.33292C8.75954 6.3825 8.74316 6.43597 8.74316 6.51667Z" fill="#142036"/>
<path fill-rule="evenodd" clip-rule="evenodd" d="M16.0275 7.47333C16.1855 7.35667 16.3146 6.52833 16.1865 6.33292C16.1104 6.21722 15.7057 6.0325 15.803 6.83653C15.8155 6.9425 15.8387 7.08931 15.8656 7.19333C15.9051 7.35083 15.9196 7.44319 16.0285 7.47236L16.0275 7.47333Z" fill="#142036"/>
<path fill-rule="evenodd" clip-rule="evenodd" d="M5.25128 25.1367C5.25128 25.4653 5.92191 25.5722 5.92191 24.7867C5.92191 24.6894 5.9431 24.53 5.87566 24.53C5.76099 24.53 5.54709 24.671 5.47675 24.7342C5.36883 24.8314 5.25128 24.9422 5.25128 25.1367Z" fill="#142036"/>
<path fill-rule="evenodd" clip-rule="evenodd" d="M4.76567 24.4133C4.76567 24.7974 5.27731 24.6457 5.55288 24.461C5.57601 24.4454 5.58372 24.4444 5.60588 24.4211C5.77546 24.249 5.37752 24.0857 5.22721 24.0857C5.02197 24.0857 4.76471 24.2228 4.76471 24.4124L4.76567 24.4133Z" fill="#142036"/>
<path fill-rule="evenodd" clip-rule="evenodd" d="M6.6147 25.44C6.74285 25.44 6.86136 25.3097 6.91628 25.231C7.06178 25.0239 6.8922 24.8907 6.63108 24.6292C6.54918 24.5465 6.47209 24.3968 6.35936 24.3667C6.32563 24.5135 6.29673 24.531 6.35743 24.6233C6.7467 25.2222 6.41621 25.44 6.61373 25.44H6.6147Z" fill="#142036"/>
<path fill-rule="evenodd" clip-rule="evenodd" d="M15.9119 4.97667C15.8425 4.93778 15.7548 4.95333 15.6344 4.95333V5.21C15.7837 5.175 15.7327 5.18667 15.9119 5.18667L15.884 5.46569H16.1431C16.1431 5.34903 16.12 5.32278 16.12 5.18667C16.4611 5.18667 16.3975 5.27125 16.3975 4.95333H16.1894C16.1008 4.95333 16.1807 4.94653 16.12 4.97667C16.12 4.83472 16.1431 4.79 16.1431 4.67333H15.8888C15.8888 4.80653 15.9119 4.83472 15.9119 4.97667Z" fill="#142036"/>
<path fill-rule="evenodd" clip-rule="evenodd" d="M8.85879 4.97667C8.78942 4.93778 8.70173 4.95333 8.58129 4.95333C8.58129 5.27125 8.5177 5.18667 8.85879 5.18667C8.85879 5.32278 8.83566 5.35 8.83566 5.46667H9.09004L9.0621 5.18764C9.24324 5.18764 9.1941 5.175 9.34441 5.21V4.95333H9.13629C9.04764 4.95333 9.12762 4.94653 9.06691 4.97667C9.06691 4.83472 9.09004 4.80653 9.09004 4.67333H8.83566C8.83566 4.79 8.85879 4.83472 8.85879 4.97667Z" fill="#142036"/>
<path fill-rule="evenodd" clip-rule="evenodd" d="M20.0281 25.3233C20.0281 25.4925 20.0859 25.7433 20.2363 25.7433C20.3683 25.7433 20.5138 25.721 20.5138 25.5333C20.5138 25.1969 20.0281 24.6836 20.0281 25.3233Z" fill="#142036"/>
<path fill-rule="evenodd" clip-rule="evenodd" d="M18.6869 25.4167C18.6869 25.7074 18.7081 25.7433 18.9413 25.7433C18.9943 25.7433 19.0627 25.6811 19.0887 25.6354C19.186 25.4711 19.1725 25.02 19.0338 25.02C18.8863 25.02 18.6869 25.266 18.6869 25.4167Z" fill="#142036"/>
<path fill-rule="evenodd" clip-rule="evenodd" d="M6.17628 25.51C6.52797 25.51 6.29672 24.8693 6.15315 24.7633C6.08089 24.9014 6.06161 24.9646 6.02982 25.1532C6.00766 25.2796 6.01536 25.51 6.17628 25.51Z" fill="#142036"/>
<path fill-rule="evenodd" clip-rule="evenodd" d="M12.2581 2.94667C12.2581 3.355 12.7206 3.26167 12.7206 2.99333C12.7206 2.62 12.2581 2.68903 12.2581 2.94667Z" fill="#142036"/>
<path fill-rule="evenodd" clip-rule="evenodd" d="M2.4763 20.9133C2.35393 21.4422 3.0814 21.5268 2.90122 21.1156C2.82125 20.9337 2.66612 20.8385 2.4763 20.9133Z" fill="#142036"/>
<path fill-rule="evenodd" clip-rule="evenodd" d="M6.82379 25.72C7.02517 25.72 7.26316 25.4128 7.26316 25.3C7.26316 25.2368 7.25256 25.2358 7.24004 25.1833C7.1379 25.1921 7.14465 25.2164 7.09069 25.2893C6.90954 25.5343 6.97217 25.4342 6.81608 25.5732C6.77368 25.6111 6.69564 25.72 6.82379 25.72Z" fill="#142036"/>
<path fill-rule="evenodd" clip-rule="evenodd" d="M7.05502 25.8367V25.8833C7.08778 25.8911 7.38455 26.0544 7.47031 25.8357C7.53198 25.6763 7.45682 25.6451 7.42502 25.51C7.31614 25.5392 7.38166 25.5431 7.2458 25.6792C7.1851 25.7404 7.14367 25.8124 7.05502 25.8367Z" fill="#142036"/>
<path fill-rule="evenodd" clip-rule="evenodd" d="M16.1894 5.91C16.1894 5.5775 15.8367 5.65042 15.8252 5.86625C15.8117 6.12778 16.1894 6.0918 16.1894 5.91Z" fill="#142036"/>
<path fill-rule="evenodd" clip-rule="evenodd" d="M8.7894 5.86333C8.7894 6.13847 9.16518 6.10444 9.15362 5.86625C9.14109 5.62708 8.7894 5.62319 8.7894 5.86333Z" fill="#142036"/>
<path fill-rule="evenodd" clip-rule="evenodd" d="M19.4269 24.1333C19.4269 24.3676 19.7506 24.4017 19.7506 24.11C19.7506 23.9428 19.4269 23.9146 19.4269 24.1333Z" fill="#142036"/>
<path fill-rule="evenodd" clip-rule="evenodd" d="M18.8025 24.1333C18.8025 24.3919 19.1262 24.354 19.1262 24.1567C19.1262 23.8981 18.8025 23.936 18.8025 24.1333Z" fill="#142036"/>
<path fill-rule="evenodd" clip-rule="evenodd" d="M20.8606 23.97C20.6602 23.97 20.6535 24.3278 20.8809 24.3132C20.9695 24.3074 21.0398 24.2228 21.036 24.1333C21.0331 24.0575 20.955 23.97 20.8606 23.97Z" fill="#142036"/>
<path fill-rule="evenodd" clip-rule="evenodd" d="M19.4269 22.85C19.4269 23.096 19.7506 23.0882 19.7506 22.8733C19.7506 22.6157 19.4269 22.6604 19.4269 22.85Z" fill="#142036"/>
<path fill-rule="evenodd" clip-rule="evenodd" d="M18.1781 24.1333C18.1781 24.3531 18.5019 24.4085 18.5019 24.11C18.5019 23.9428 18.1781 23.9146 18.1781 24.1333Z" fill="#142036"/>
<path fill-rule="evenodd" clip-rule="evenodd" d="M20.0744 24.1333C20.0744 24.391 20.3981 24.3463 20.3981 24.1567C20.3981 24.0565 20.3268 23.97 20.2362 23.97C20.1582 23.97 20.0744 24.0546 20.0744 24.1333Z" fill="#142036"/>
<path fill-rule="evenodd" clip-rule="evenodd" d="M19.4269 23.5033C19.4269 23.7104 19.7506 23.7318 19.7506 23.5033C19.7506 23.2574 19.4269 23.306 19.4269 23.5033Z" fill="#142036"/>
<path fill-rule="evenodd" clip-rule="evenodd" d="M1.4819 20.12C1.5638 20.1754 1.62354 20.2833 1.7594 20.2833C1.89526 20.2833 1.88755 20.0597 1.6669 19.91C1.63992 19.9294 1.5031 20.0879 1.4819 20.12Z" fill="#142036"/>
<path fill-rule="evenodd" clip-rule="evenodd" d="M13.6688 6.37667H13.715C13.8595 6.37667 13.8595 6.12 13.715 6.12H13.6688C13.5242 6.12 13.5242 6.37667 13.6688 6.37667Z" fill="#142036"/>
<path fill-rule="evenodd" clip-rule="evenodd" d="M12.975 6.14333C12.9278 6.34945 12.9789 6.40097 13.1832 6.35333C13.2063 6.3057 13.2236 6.27264 13.2149 6.22306C13.1928 6.08986 13.0627 6.10833 12.975 6.14333Z" fill="#142036"/>
<path fill-rule="evenodd" clip-rule="evenodd" d="M11.8881 6.37667C11.997 6.37667 12.1136 6.12 11.8419 6.12C11.7099 6.12 11.6858 6.37667 11.8881 6.37667Z" fill="#142036"/>
<path fill-rule="evenodd" clip-rule="evenodd" d="M11.1481 6.21333C11.1481 6.48264 11.4025 6.38347 11.4025 6.23667C11.4025 6.07042 11.1481 6.08694 11.1481 6.21333Z" fill="#142036"/>
<path fill-rule="evenodd" clip-rule="evenodd" d="M12.3506 6.21333C12.3506 6.43403 12.605 6.43403 12.605 6.21333C12.605 6.08305 12.3506 6.08305 12.3506 6.21333Z" fill="#142036"/>
<path fill-rule="evenodd" clip-rule="evenodd" d="M5.25128 23.8767C5.37365 23.8767 5.3881 23.8776 5.48253 23.9C5.48253 23.7901 5.51626 23.6443 5.40738 23.6793C5.33222 23.7026 5.26959 23.8008 5.25128 23.8767Z" fill="#142036"/>
<path d="M15.1478 16.6842C15.0418 16.5782 14.9021 16.5199 14.7566 16.5228C14.6294 16.5228 14.4955 16.5665 14.3625 16.6492C14.3384 16.6628 14.3249 16.691 14.3288 16.7201C14.3307 16.7279 14.4261 17.4318 14.3529 17.7332C14.298 17.9607 14.1187 18.2271 13.7921 18.2271C13.7189 18.2271 13.6456 18.2144 13.5753 18.1921C13.5753 18.1921 13.5724 18.1921 13.5724 18.1911L13.8191 18.0113C13.8489 17.9899 13.8576 17.9471 13.8383 17.914C13.8335 17.9063 13.8268 17.8994 13.8191 17.8936L13.3296 17.5319C13.4838 17.4075 13.582 17.3181 13.5946 17.3074C13.609 17.2947 13.6177 17.2763 13.6187 17.2558C13.6187 17.2364 13.611 17.2169 13.5975 17.2033L13.5107 17.109C13.4982 17.0964 13.4818 17.0886 13.4645 17.0876C13.4491 17.0876 13.4346 17.0935 13.4231 17.1022C13.4173 17.1051 13.2882 17.2121 13.0926 17.3579L12.896 17.2121L13.6649 16.6453L13.7247 16.8086C13.7343 16.8349 13.7574 16.8524 13.7834 16.8533H13.7863C13.8104 16.8533 13.8326 16.8388 13.8441 16.8154L14.2103 16.094C14.2276 16.059 14.2161 16.0163 14.1843 15.9968C14.1746 15.991 14.1631 15.9881 14.1515 15.9881H14.1419L13.3845 16.1106C13.3585 16.1135 13.3373 16.1339 13.3296 16.1601C13.3238 16.1864 13.3315 16.2146 13.3489 16.2331L13.4722 16.3497L12.5992 16.9924L11.7282 16.3488L11.8506 16.2321C11.8689 16.2136 11.8766 16.1844 11.8689 16.1592C11.8631 16.1319 11.8419 16.1115 11.8159 16.1096L11.0585 15.9871H11.0489C11.0267 15.9871 11.0065 15.9978 10.994 16.0172C10.9805 16.0396 10.9786 16.0688 10.9901 16.0931L11.3543 16.8154C11.3669 16.8378 11.389 16.8524 11.4131 16.8533H11.417C11.443 16.8514 11.4652 16.8339 11.4748 16.8086L11.5355 16.6453L12.3044 17.2121L12.1078 17.3579C11.9103 17.2121 11.7812 17.1051 11.7783 17.1022C11.7667 17.0935 11.7523 17.0876 11.7378 17.0876C11.7195 17.0876 11.7022 17.0954 11.6897 17.109L11.601 17.2033C11.5885 17.2179 11.5817 17.2364 11.5817 17.2558C11.5827 17.2753 11.5914 17.2938 11.6039 17.3074C11.6184 17.319 11.7147 17.4085 11.8698 17.5319L11.3784 17.8946C11.3611 17.9082 11.3505 17.9296 11.3505 17.9529C11.3505 17.9763 11.3621 17.9976 11.3794 18.0113L11.6261 18.1911C11.6261 18.1911 11.6241 18.1921 11.6232 18.1921C11.5528 18.2144 11.4806 18.2261 11.4073 18.2271C11.0807 18.2271 10.8996 17.9607 10.8446 17.7332C10.7714 17.4308 10.8687 16.7269 10.8687 16.7201C10.8735 16.6919 10.86 16.6628 10.836 16.6492C10.7011 16.5665 10.5681 16.5228 10.4419 16.5228C10.2964 16.5199 10.1557 16.5782 10.0487 16.6851C10.0372 16.6958 10.0314 16.7114 10.0304 16.7279C10.0266 16.7717 9.95143 17.7886 10.3908 18.3029C10.5536 18.4925 10.7647 18.5888 11.0219 18.5888C11.0691 18.5888 11.1163 18.5868 11.1636 18.58C11.4122 18.545 11.6569 18.4808 11.893 18.3875L12.2996 18.6821L11.3977 19.3364C11.3794 19.35 11.3688 19.3724 11.3688 19.3967C11.3688 19.42 11.3794 19.4424 11.3987 19.455L12.3025 20.1258L11.5326 20.6975L11.4738 20.5371C11.4642 20.5118 11.442 20.4943 11.416 20.4924C11.416 20.4924 11.4147 20.492 11.4122 20.4914C11.3881 20.4914 11.3659 20.506 11.3534 20.5293L10.9892 21.2526C10.9776 21.276 10.9795 21.3042 10.993 21.3265C11.0055 21.346 11.0258 21.3576 11.0479 21.3567H11.0576L11.8149 21.2371C11.84 21.2332 11.8612 21.2138 11.8679 21.1875C11.8756 21.1613 11.8679 21.1321 11.8496 21.1126L11.7243 20.994L12.5983 20.3456L13.4741 20.996L13.3489 21.1146C13.3296 21.134 13.3219 21.1632 13.3296 21.1894C13.3373 21.2157 13.3585 21.2351 13.3845 21.239L14.1419 21.3586H14.1515C14.1881 21.3586 14.218 21.3275 14.218 21.2886C14.218 21.2769 14.2151 21.2653 14.2103 21.2546L13.8441 20.5313C13.8326 20.5079 13.8104 20.4943 13.7863 20.4933C13.7844 20.4933 13.7834 20.4933 13.7834 20.4943C13.7574 20.4963 13.7343 20.5138 13.7247 20.539L13.6639 20.6975L12.8941 20.1249L13.7988 19.454C13.8172 19.4404 13.8278 19.419 13.8287 19.3957C13.8287 19.3714 13.8172 19.349 13.7988 19.3354L12.897 18.6811L13.3055 18.3865C13.5406 18.4799 13.7844 18.545 14.033 18.579C14.0802 18.5858 14.1274 18.5888 14.1746 18.5878C14.4309 18.5878 14.6439 18.4915 14.8057 18.3019C15.2451 17.7876 15.17 16.7707 15.1661 16.7269C15.1642 16.7114 15.1574 16.6968 15.1478 16.6851V16.6842ZM12.5983 17.4318L12.7919 17.5728C12.7312 17.6156 12.6667 17.6574 12.5983 17.7001C12.5318 17.6564 12.4682 17.6146 12.4056 17.5728L12.5983 17.4318ZM11.8939 17.951L12.1618 17.7536C12.2138 17.7896 12.2687 17.8275 12.3275 17.8654C12.2225 17.9257 12.1184 17.9821 12.0105 18.0336L11.8939 17.95V17.951ZM13.2862 19.3967L12.5983 19.9071L11.9122 19.3967L12.5983 18.8969L13.2862 19.3967ZM12.5983 18.4643L12.2659 18.2203C12.3824 18.1619 12.4932 18.0997 12.5983 18.0385C12.7043 18.0997 12.8151 18.1619 12.9326 18.2203L12.5983 18.4643ZM13.188 18.0356C13.082 17.984 12.975 17.9276 12.87 17.8674C12.9278 17.8285 12.9818 17.7906 13.0357 17.7556L13.3045 17.9529L13.188 18.0365V18.0356Z" fill="#142036"/>
</g>
<path d="M46.62 11.5H45.432L44.748 9.616H40.968L40.284 11.5H39.096L42.228 3.1H43.488L46.62 11.5ZM42.852 4.432L41.352 8.572H44.364L42.852 4.432ZM49.6149 8.404L52.5789 11.5H51.2829L48.5469 8.656V11.5H47.5029V5.5H48.5469V8.152L51.1389 5.5H52.4829L49.6149 8.404ZM55.6618 8.404L58.6258 11.5H57.3298L54.5938 8.656V11.5H53.5498V5.5H54.5938V8.152L57.1858 5.5H58.5298L55.6618 8.404ZM62.9087 5.344C63.7487 5.344 64.4647 5.652 65.0567 6.268C65.6487 6.884 65.9447 7.628 65.9447 8.5C65.9447 9.38 65.6487 10.128 65.0567 10.744C64.4727 11.352 63.7567 11.656 62.9087 11.656C61.9167 11.656 61.1607 11.26 60.6407 10.468V13.9H59.5967V5.5H60.6407V6.532C61.1607 5.74 61.9167 5.344 62.9087 5.344ZM62.7767 10.648C63.3767 10.648 63.8807 10.444 64.2887 10.036C64.6967 9.612 64.9007 9.1 64.9007 8.5C64.9007 7.892 64.6967 7.384 64.2887 6.976C63.8807 6.56 63.3767 6.352 62.7767 6.352C62.1687 6.352 61.6607 6.56 61.2527 6.976C60.8447 7.384 60.6407 7.892 60.6407 8.5C60.6407 9.1 60.8447 9.612 61.2527 10.036C61.6607 10.444 62.1687 10.648 62.7767 10.648ZM72.9504 8.98H67.9224C68.0264 9.508 68.2704 9.924 68.6544 10.228C69.0384 10.524 69.5184 10.672 70.0944 10.672C70.8864 10.672 71.4624 10.38 71.8224 9.796L72.7104 10.3C72.1184 11.204 71.2384 11.656 70.0704 11.656C69.1264 11.656 68.3504 11.36 67.7424 10.768C67.1504 10.16 66.8544 9.404 66.8544 8.5C66.8544 7.588 67.1464 6.836 67.7304 6.244C68.3144 5.644 69.0704 5.344 69.9984 5.344C70.8784 5.344 71.5944 5.656 72.1464 6.28C72.7064 6.888 72.9864 7.632 72.9864 8.512C72.9864 8.664 72.9744 8.82 72.9504 8.98ZM69.9984 6.328C69.4464 6.328 68.9824 6.484 68.6064 6.796C68.2384 7.108 68.0104 7.532 67.9224 8.068H71.9304C71.8424 7.516 71.6224 7.088 71.2704 6.784C70.9184 6.48 70.4944 6.328 69.9984 6.328ZM79.1122 5.5V10.504H79.9402V13.108H78.9082V11.5H74.4082V13.108H73.3762V10.504H74.1082C74.4922 9.976 74.6842 9.236 74.6842 8.284V5.5H79.1122ZM75.2962 10.504H78.0802V6.472H75.7162V8.284C75.7162 9.164 75.5762 9.904 75.2962 10.504ZM82.0974 9.712L85.4214 5.5H86.2614V11.5H85.2294V7.288L81.9054 11.5H81.0654V5.5H82.0974V9.712ZM87.1786 5.5H92.3146V6.508H90.2746V11.5H89.2306V6.508H87.1786V5.5ZM98.0591 10.744C97.4511 11.352 96.7031 11.656 95.8151 11.656C94.9271 11.656 94.1791 11.352 93.5711 10.744C92.9631 10.136 92.6591 9.388 92.6591 8.5C92.6591 7.612 92.9631 6.864 93.5711 6.256C94.1791 5.648 94.9271 5.344 95.8151 5.344C96.7031 5.344 97.4511 5.648 98.0591 6.256C98.6751 6.872 98.9831 7.62 98.9831 8.5C98.9831 9.38 98.6751 10.128 98.0591 10.744ZM95.8151 10.636C96.4151 10.636 96.9191 10.432 97.3271 10.024C97.7351 9.616 97.9391 9.108 97.9391 8.5C97.9391 7.892 97.7351 7.384 97.3271 6.976C96.9191 6.568 96.4151 6.364 95.8151 6.364C95.2231 6.364 94.7231 6.568 94.3151 6.976C93.9071 7.384 93.7031 7.892 93.7031 8.5C93.7031 9.108 93.9071 9.616 94.3151 10.024C94.7231 10.432 95.2231 10.636 95.8151 10.636ZM104.21 8.416C104.826 8.672 105.134 9.136 105.134 9.808C105.134 10.32 104.966 10.732 104.63 11.044C104.294 11.348 103.822 11.5 103.214 11.5H100.214V5.5H102.974C103.566 5.5 104.026 5.648 104.354 5.944C104.69 6.24 104.858 6.636 104.858 7.132C104.858 7.708 104.642 8.136 104.21 8.416ZM102.926 6.436H101.234V8.008H102.926C103.534 8.008 103.838 7.74 103.838 7.204C103.838 6.692 103.534 6.436 102.926 6.436ZM101.234 10.552H103.154C103.458 10.552 103.69 10.48 103.85 10.336C104.018 10.192 104.102 9.988 104.102 9.724C104.102 9.476 104.018 9.284 103.85 9.148C103.69 9.004 103.458 8.932 103.154 8.932H101.234V10.552ZM111.229 6.532V5.5H112.273V11.5H111.229V10.468C110.717 11.26 109.961 11.656 108.961 11.656C108.113 11.656 107.397 11.352 106.813 10.744C106.221 10.128 105.925 9.38 105.925 8.5C105.925 7.628 106.221 6.884 106.813 6.268C107.405 5.652 108.121 5.344 108.961 5.344C109.961 5.344 110.717 5.74 111.229 6.532ZM109.093 10.648C109.701 10.648 110.209 10.444 110.617 10.036C111.025 9.612 111.229 9.1 111.229 8.5C111.229 7.892 111.025 7.384 110.617 6.976C110.209 6.56 109.701 6.352 109.093 6.352C108.493 6.352 107.989 6.56 107.581 6.976C107.173 7.384 106.969 7.892 106.969 8.5C106.969 9.1 107.173 9.612 107.581 10.036C107.989 10.444 108.493 10.648 109.093 10.648ZM118.007 7.996V5.5H119.051V11.5H118.007V8.992H114.899V11.5H113.854V5.5H114.899V7.996H118.007ZM124.792 7.996V5.5H125.836V11.5H124.792V8.992H121.684V11.5H120.64V5.5H121.684V7.996H124.792ZM132.393 6.532V5.5H133.437V11.5H132.393V10.468C131.881 11.26 131.125 11.656 130.125 11.656C129.277 11.656 128.561 11.352 127.977 10.744C127.385 10.128 127.089 9.38 127.089 8.5C127.089 7.628 127.385 6.884 127.977 6.268C128.569 5.652 129.285 5.344 130.125 5.344C131.125 5.344 131.881 5.74 132.393 6.532ZM130.257 10.648C130.865 10.648 131.373 10.444 131.781 10.036C132.189 9.612 132.393 9.1 132.393 8.5C132.393 7.892 132.189 7.384 131.781 6.976C131.373 6.56 130.865 6.352 130.257 6.352C129.657 6.352 129.153 6.56 128.745 6.976C128.337 7.384 128.133 7.892 128.133 8.5C128.133 9.1 128.337 9.612 128.745 10.036C129.153 10.444 129.657 10.648 130.257 10.648ZM136.951 5.5H139.507V11.5H138.475V9.34H137.599L135.919 11.5H134.647L136.399 9.28C135.943 9.168 135.575 8.944 135.295 8.608C135.023 8.272 134.887 7.88 134.887 7.432C134.887 6.88 135.083 6.42 135.475 6.052C135.867 5.684 136.359 5.5 136.951 5.5ZM136.987 8.404H138.475V6.472H136.987C136.683 6.472 136.427 6.564 136.219 6.748C136.019 6.924 135.919 7.156 135.919 7.444C135.919 7.724 136.019 7.956 136.219 8.14C136.427 8.316 136.683 8.404 136.987 8.404ZM39.9 26.5V18.1H41.016V26.5H39.9ZM42.134 18.1H48.194V19.156H45.71V26.5H44.606V19.156H42.134V18.1ZM54.3024 23.404L57.2664 26.5H55.9704L53.2344 23.656V26.5H52.1904V20.5H53.2344V23.152L55.8264 20.5H57.1704L54.3024 23.404ZM62.7505 25.744C62.1425 26.352 61.3945 26.656 60.5065 26.656C59.6185 26.656 58.8705 26.352 58.2625 25.744C57.6545 25.136 57.3505 24.388 57.3505 23.5C57.3505 22.612 57.6545 21.864 58.2625 21.256C58.8705 20.648 59.6185 20.344 60.5065 20.344C61.3945 20.344 62.1425 20.648 62.7505 21.256C63.3665 21.872 63.6745 22.62 63.6745 23.5C63.6745 24.38 63.3665 25.128 62.7505 25.744ZM60.5065 25.636C61.1065 25.636 61.6105 25.432 62.0185 25.024C62.4265 24.616 62.6305 24.108 62.6305 23.5C62.6305 22.892 62.4265 22.384 62.0185 21.976C61.6105 21.568 61.1065 21.364 60.5065 21.364C59.9145 21.364 59.4145 21.568 59.0065 21.976C58.5985 22.384 58.3945 22.892 58.3945 23.5C58.3945 24.108 58.5985 24.616 59.0065 25.024C59.4145 25.432 59.9145 25.636 60.5065 25.636ZM69.7893 20.5H70.9053V26.5H69.8853V22.144L67.9773 25.216H67.8453L65.9373 22.144V26.5H64.9053V20.5H66.0213L67.9053 23.536L69.7893 20.5ZM72.499 20.5H77.695V26.5H76.651V21.496H73.543V26.5H72.499V20.5ZM84.2522 21.532V20.5H85.2962V26.5H84.2522V25.468C83.7402 26.26 82.9842 26.656 81.9842 26.656C81.1362 26.656 80.4202 26.352 79.8362 25.744C79.2442 25.128 78.9482 24.38 78.9482 23.5C78.9482 22.628 79.2442 21.884 79.8362 21.268C80.4282 20.652 81.1442 20.344 81.9842 20.344C82.9842 20.344 83.7402 20.74 84.2522 21.532ZM82.1162 25.648C82.7242 25.648 83.2322 25.444 83.6402 25.036C84.0482 24.612 84.2522 24.1 84.2522 23.5C84.2522 22.892 84.0482 22.384 83.6402 21.976C83.2322 21.56 82.7242 21.352 82.1162 21.352C81.5162 21.352 81.0122 21.56 80.6042 21.976C80.1962 22.384 79.9922 22.892 79.9922 23.5C79.9922 24.1 80.1962 24.612 80.6042 25.036C81.0122 25.444 81.5162 25.648 82.1162 25.648ZM91.0299 22.996V20.5H92.0739V26.5H91.0299V23.992H87.9219V26.5H86.8779V20.5H87.9219V22.996H91.0299ZM94.6951 24.712L98.0191 20.5H98.8591V26.5H97.8271V22.288L94.5031 26.5H93.6631V20.5H94.6951V24.712ZM102.38 20.5H104.936V26.5H103.904V24.34H103.028L101.348 26.5H100.076L101.828 24.28C101.372 24.168 101.004 23.944 100.724 23.608C100.452 23.272 100.316 22.88 100.316 22.432C100.316 21.88 100.512 21.42 100.904 21.052C101.296 20.684 101.788 20.5 102.38 20.5ZM102.416 23.404H103.904V21.472H102.416C102.112 21.472 101.856 21.564 101.648 21.748C101.448 21.924 101.348 22.156 101.348 22.444C101.348 22.724 101.448 22.956 101.648 23.14C101.856 23.316 102.112 23.404 102.416 23.404Z" fill="#142036"/>
<defs>
<clipPath id="clip0_2010_132">
<rect width="25" height="28" fill="white" transform="translate(0 1.5)"/>
</clipPath>
</defs>
</svg>
