<svg width="124" height="39" viewBox="0 0 124 39" fill="none" xmlns="http://www.w3.org/2000/svg">
<g clip-path="url(#clip0_1_220)">
<path d="M59.3481 15.2448C57.6977 16.8698 55.6906 17.6833 53.3247 17.6833C50.9588 17.6833 48.9517 16.8698 47.3013 15.2448C45.651 13.6198 44.8268 11.6156 44.8268 9.23212C44.8268 6.84865 45.651 4.84442 47.3013 3.21942C48.9517 1.59442 50.9588 0.780899 53.3247 0.780899C55.6906 0.780899 57.6977 1.59442 59.3481 3.21942C60.9985 4.84442 61.8226 6.84865 61.8226 9.23212C61.8226 11.6136 60.9985 13.6178 59.3481 15.2448ZM48.5642 9.23008C48.5642 10.6553 49.0153 11.8154 49.9194 12.7125C50.8215 13.6096 51.9573 14.0582 53.3268 14.0582C54.6819 14.0582 55.8095 13.6096 56.7116 12.7125C57.6301 11.7991 58.0893 10.639 58.0893 9.23008C58.0893 7.82121 57.6301 6.66108 56.7116 5.74765C55.8095 4.85054 54.6799 4.39994 53.3268 4.39994C51.9573 4.39994 50.8215 4.8485 49.9194 5.74765C49.0153 6.6468 48.5642 7.80693 48.5642 9.23008ZM73.8469 1.10508V4.68131H67.6595V7.81509H73.73V11.3913H67.6595V17.3592H63.9241V1.10508H73.8469ZM85.9859 1.10508V4.68131H79.7985V7.81509H85.869V11.3913H79.7985V17.3592H76.0631V1.10508H85.9859ZM53.5133 29.1705H61.7078V30.5631C61.7078 32.9771 60.9452 34.9202 59.4199 36.3902C57.9089 37.8297 55.9879 38.5494 53.6528 38.5494C51.1147 38.5494 49.0071 37.7359 47.3259 36.1109C45.6612 34.4859 44.8288 32.4898 44.8288 30.1206C44.8288 27.7514 45.653 25.7472 47.3034 24.1079C48.9538 22.4666 50.9834 21.647 53.3965 21.647C54.9054 21.647 56.2954 21.9834 57.5645 22.6562C58.8335 23.3291 59.8258 24.2323 60.5413 25.3618L57.3656 27.1724C56.9925 26.5994 56.4512 26.1386 55.7439 25.79C55.0346 25.4413 54.2452 25.268 53.3739 25.268C51.988 25.268 50.8379 25.7248 49.9194 26.6382C49.0173 27.5353 48.5642 28.7036 48.5642 30.1451C48.5642 31.5376 49.0317 32.6917 49.9645 33.6051C50.8973 34.4879 52.1438 34.9283 53.6999 34.9283C55.8485 34.9283 57.2405 34.0924 57.8781 32.4205H53.5133V29.1705ZM76.4157 38.2252H72.3994L69.318 32.8854H67.5446V38.2252H63.8093V21.9732H70.3452C71.9012 21.9732 73.2236 22.5155 74.3143 23.5982C75.4029 24.6829 75.9483 25.998 75.9483 27.5455C75.9483 28.5201 75.6715 29.4335 75.12 30.2858C74.5665 31.138 73.8407 31.7945 72.9366 32.2594L76.4157 38.2252ZM70.3452 25.4556H67.5446V29.6354H70.3452C70.8598 29.6354 71.2985 29.4335 71.6634 29.0318C72.0284 28.6302 72.2129 28.1347 72.2129 27.5455C72.2129 26.9583 72.0304 26.4628 71.6634 26.0591C71.2985 25.6575 70.8577 25.4556 70.3452 25.4556ZM91.753 36.1129C90.1026 37.7379 88.0955 38.5514 85.7296 38.5514C83.3637 38.5514 81.3566 37.7379 79.7062 36.1129C78.0558 34.4879 77.2317 32.4837 77.2317 30.1002C77.2317 27.7168 78.0558 25.7125 79.7062 24.0875C81.3566 22.4625 83.3637 21.649 85.7296 21.649C88.0955 21.649 90.1026 22.4625 91.753 24.0875C93.4034 25.7125 94.2275 27.7168 94.2275 30.1002C94.2275 32.4837 93.4013 34.4879 91.753 36.1129ZM80.9671 30.0982C80.9671 31.5234 81.4181 32.6835 82.3202 33.5806C83.2222 34.4777 84.358 34.9263 85.7275 34.9263C87.0807 34.9263 88.2103 34.4777 89.1124 33.5806C90.0308 32.6672 90.4901 31.5071 90.4901 30.0982C90.4901 28.6893 90.0308 27.5292 89.1124 26.6157C88.2103 25.7186 87.0807 25.2701 85.7275 25.2701C84.358 25.2701 83.2222 25.7186 82.3202 26.6157C81.4181 27.5149 80.9671 28.675 80.9671 30.0982ZM96.0952 32.9771V21.9732H99.8306V32.6529C99.8306 34.1699 100.686 34.9283 102.399 34.9283C104.113 34.9283 104.968 34.1699 104.968 32.6529V21.9732H108.704V32.9771C108.704 34.6959 108.111 36.0497 106.93 37.0406C105.731 38.0458 104.222 38.5494 102.402 38.5494C100.581 38.5494 99.07 38.0458 97.8727 37.0406C96.6857 36.0497 96.0952 34.6959 96.0952 32.9771ZM111.385 21.9732H117.573C119.19 21.9732 120.545 22.5155 121.634 23.5982C122.739 24.6971 123.293 26.0122 123.293 27.5455C123.293 29.0787 122.739 30.3938 121.634 31.4928C120.545 32.5754 119.19 33.1178 117.573 33.1178H115.121V38.2252H111.385V21.9732ZM115.121 29.6354H117.573C118.149 29.6354 118.622 29.4335 118.998 29.0318C119.371 28.6302 119.557 28.1347 119.557 27.5455C119.557 26.9583 119.371 26.4628 118.998 26.0591C118.624 25.6575 118.149 25.4556 117.573 25.4556H115.121V29.6354Z" fill="#142036"/>
<path d="M19.2408 19.6529H0.565865C0.565865 9.39523 8.92643 1.08062 19.2408 1.08062V19.6529Z" fill="#FF7F1F"/>
<path d="M19.2408 19.6529V38.2252C8.92643 38.2252 0.565865 29.9106 0.565865 19.6529H19.2408Z" fill="#F4143F"/>
<path d="M19.2408 19.6529H37.9157C37.9157 29.9106 29.5552 38.2252 19.2408 38.2252V19.6529Z" fill="#FF5B22"/>
<path d="M19.2408 1.08062H37.9157C37.9157 11.3383 29.5552 19.6529 19.2408 19.6529V1.08062Z" fill="#FFB11E"/>
</g>
<defs>
<clipPath id="clip0_1_220">
<rect width="124" height="39" fill="white"/>
</clipPath>
</defs>
</svg>
